<?xml version="1.0" standalone="no"?>
<!DOCTYPE svg PUBLIC "-//W3C//DTD SVG 20010904//EN"
 "http://www.w3.org/TR/2001/REC-SVG-20010904/DTD/svg10.dtd">
<svg version="1.0" xmlns="http://www.w3.org/2000/svg"
 width="300.000000pt" height="300.000000pt" viewBox="0 0 300.000000 300.000000"
 preserveAspectRatio="xMidYMid meet">

  <metadata>
    Created by potrace 1.10, written by Peter Selinger 2001-2011
  </metadata>

  <g transform="translate(0.000000,300.000000) scale(0.100000,-0.100000)"
     fill="#000" stroke="#000" stroke-width="10">
    <path d="M748 2536 c-106 -28 -216 -132 -258 -243 -158 -422 253 -1155 884
    -1577 385 -258 779 -331 999 -185 178 118 223 327 95 445 -46 43 -336 244
    -375 261 -18 7 -57 13 -87 13 -93 0 -146 -32 -215 -131 l-49 -69 -68 52 c-206
    154 -417 365 -572 572 l-52 68 70 50 c94 65 123 111 128 197 3 44 -1 79 -10
    101 -18 42 -218 331 -262 378 -60 65 -144 90 -228 68z m129 -47 c15 -5 43 -25
    61 -42 40 -38 247 -332 262 -371 32 -84 -4 -176 -95 -246 -33 -26 -67 -58 -75
    -72 -13 -25 -12 -29 22 -81 126 -190 537 -592 665 -650 32 -14 45 -6 108 73
    85 107 166 134 262 91 49 -23 303 -199 352 -245 42 -39 61 -83 61 -141 0 -103
    -100 -230 -215 -275 -84 -32 -253 -39 -362 -15 -303 67 -589 240 -884 534
    -208 208 -341 393 -440 616 -79 177 -102 284 -97 446 3 88 9 127 27 171 58
    149 231 252 348 207z"/>
  </g>
</svg>

