<svg id="svg" version="1.1" xmlns="http://www.w3.org/2000/svg" xmlns:xlink="http://www.w3.org/1999/xlink" width="400" height="400" viewBox="0, 0, 400,400"><g id="svgg"><path id="path0" d="M151.000 98.414 C 149.460 98.588,147.300 98.916,146.200 99.142 C 145.100 99.367,143.207 99.563,141.994 99.576 C 140.622 99.591,139.246 99.891,138.354 100.369 C 137.565 100.791,135.895 101.327,134.642 101.558 C 133.390 101.790,131.973 102.254,131.493 102.590 C 131.014 102.925,130.282 103.200,129.865 103.200 C 129.449 103.200,128.454 103.546,127.654 103.969 C 126.855 104.392,124.850 105.391,123.200 106.188 C 119.765 107.849,118.017 108.861,115.406 110.700 C 114.390 111.415,113.465 112.000,113.348 112.000 C 112.215 112.000,103.351 120.506,99.696 125.100 C 98.252 126.915,96.920 128.400,96.735 128.400 C 96.551 128.400,96.400 128.646,96.400 128.947 C 96.400 129.248,95.605 130.680,94.632 132.130 C 93.660 133.580,92.735 135.179,92.577 135.683 C 92.419 136.187,91.955 137.029,91.545 137.554 C 91.135 138.079,90.800 138.770,90.800 139.091 C 90.800 139.411,90.440 140.131,90.000 140.691 C 89.560 141.250,89.200 142.017,89.200 142.394 C 89.200 142.772,88.779 143.873,88.265 144.840 C 87.751 145.808,87.222 147.410,87.090 148.399 C 86.678 151.479,85.482 152.146,80.979 151.809 C 78.354 151.612,76.340 151.708,73.950 152.143 C 72.108 152.478,69.520 152.875,68.200 153.024 C 66.880 153.174,65.045 153.635,64.122 154.048 C 63.199 154.462,62.119 154.801,61.722 154.802 C 61.325 154.804,60.460 155.092,59.800 155.443 C 59.140 155.794,57.745 156.340,56.700 156.656 C 55.655 156.972,54.800 157.392,54.800 157.589 C 54.800 157.785,54.395 158.069,53.900 158.219 C 50.169 159.351,39.847 168.307,36.453 173.357 C 33.320 178.018,30.619 182.977,30.174 184.884 C 30.035 185.480,29.681 186.167,29.386 186.412 C 29.092 186.656,28.724 187.867,28.570 189.102 C 28.416 190.338,27.926 192.169,27.483 193.171 C 26.266 195.923,26.292 213.257,27.517 216.000 C 27.959 216.990,28.446 218.750,28.600 219.910 C 28.753 221.071,29.122 222.264,29.419 222.562 C 29.717 222.860,30.089 223.620,30.247 224.252 C 30.635 225.809,33.868 232.002,34.827 233.026 C 35.252 233.480,35.600 234.056,35.600 234.305 C 35.600 236.585,50.939 250.400,53.471 250.400 C 53.698 250.400,54.369 250.850,54.962 251.400 C 55.556 251.950,56.437 252.401,56.921 252.403 C 57.404 252.404,58.340 252.763,59.000 253.200 C 59.660 253.637,60.653 253.996,61.206 253.997 C 61.759 253.999,62.871 254.353,63.677 254.785 C 64.484 255.218,66.708 255.765,68.632 256.004 C 70.552 256.243,72.444 256.609,72.835 256.819 C 73.258 257.045,81.273 257.200,92.545 257.200 L 111.542 257.200 111.792 255.100 C 111.929 253.945,111.987 248.590,111.920 243.200 L 111.800 233.400 92.600 233.194 C 73.661 232.990,73.378 232.975,71.806 232.094 C 70.929 231.602,69.814 231.200,69.327 231.200 C 68.299 231.200,64.992 229.519,63.781 228.382 C 63.323 227.952,62.761 227.600,62.532 227.600 C 61.791 227.600,56.909 222.851,55.641 220.898 C 54.963 219.854,54.137 218.648,53.805 218.219 C 53.472 217.789,53.200 217.048,53.200 216.573 C 53.200 216.097,52.859 215.274,52.441 214.743 C 52.024 214.213,51.502 212.703,51.281 211.389 C 51.061 210.075,50.645 207.965,50.358 206.700 C 49.927 204.807,49.927 203.993,50.358 202.100 C 50.645 200.835,51.061 198.725,51.281 197.411 C 51.502 196.097,52.024 194.587,52.441 194.057 C 52.859 193.526,53.200 192.688,53.200 192.195 C 53.200 191.702,53.480 191.065,53.823 190.781 C 54.166 190.496,54.687 189.688,54.981 188.984 C 55.696 187.274,60.567 182.154,62.513 181.068 C 65.633 179.327,66.218 178.980,67.189 178.297 C 67.733 177.913,68.679 177.600,69.290 177.600 C 69.902 177.600,71.075 177.240,71.896 176.800 C 74.063 175.638,83.795 175.638,86.200 176.800 C 87.080 177.225,88.181 177.579,88.646 177.586 C 89.111 177.594,89.921 177.935,90.446 178.345 C 90.971 178.755,91.847 179.230,92.393 179.401 C 94.388 180.027,101.270 185.999,101.805 187.568 C 102.314 189.063,103.887 189.699,105.096 188.899 C 106.764 187.794,107.698 187.243,108.800 186.713 C 109.350 186.448,110.229 185.910,110.754 185.516 C 111.279 185.122,112.022 184.800,112.405 184.800 C 112.788 184.800,113.337 184.517,113.624 184.171 C 113.911 183.825,114.789 183.188,115.573 182.756 C 116.358 182.324,117.720 181.536,118.600 181.006 C 119.480 180.475,120.650 179.840,121.200 179.594 C 123.783 178.439,124.390 177.233,123.181 175.663 C 116.600 167.125,116.135 166.636,110.666 162.502 C 108.869 161.144,108.746 160.938,108.932 159.620 C 109.223 157.572,110.398 153.581,110.994 152.622 C 111.275 152.170,111.627 151.274,111.777 150.632 C 111.927 149.989,112.398 149.020,112.825 148.478 C 113.251 147.936,113.600 147.274,113.600 147.008 C 113.600 146.742,113.960 146.198,114.400 145.800 C 114.840 145.402,115.200 144.846,115.200 144.565 C 115.200 142.642,128.242 129.600,130.164 129.600 C 130.446 129.600,130.987 129.256,131.367 128.836 C 131.748 128.416,132.526 127.955,133.098 127.811 C 133.669 127.668,134.580 127.202,135.122 126.775 C 135.664 126.349,136.550 126.000,137.091 126.000 C 137.631 126.000,138.531 125.640,139.091 125.200 C 139.658 124.754,140.714 124.400,141.476 124.400 C 142.228 124.400,143.689 123.995,144.722 123.500 C 146.498 122.649,147.090 122.600,155.600 122.600 C 164.110 122.600,164.702 122.649,166.478 123.500 C 167.511 123.995,168.951 124.401,169.678 124.403 C 170.405 124.404,171.540 124.763,172.200 125.200 C 172.860 125.637,173.781 125.996,174.246 125.997 C 174.711 125.999,175.521 126.335,176.046 126.745 C 176.571 127.155,177.450 127.627,178.000 127.795 C 178.550 127.962,179.322 128.437,179.716 128.850 C 180.109 129.262,180.595 129.600,180.796 129.600 C 181.655 129.600,185.240 132.437,188.616 135.788 C 193.837 140.971,195.346 142.937,197.591 147.483 C 198.049 148.409,198.574 149.261,198.760 149.375 C 198.945 149.490,199.212 150.160,199.353 150.865 C 199.494 151.571,199.857 152.429,200.160 152.774 C 200.463 153.118,200.897 154.210,201.125 155.200 C 201.353 156.190,201.854 157.810,202.239 158.800 C 203.389 161.761,203.293 179.416,202.111 182.200 C 201.644 183.300,201.143 184.910,200.998 185.779 C 200.853 186.647,200.389 187.796,199.967 188.333 C 199.545 188.869,199.200 189.619,199.200 190.000 C 199.200 190.381,198.865 191.121,198.455 191.646 C 198.045 192.171,197.575 193.050,197.409 193.600 C 197.244 194.150,196.728 195.014,196.265 195.521 C 194.854 197.062,195.817 197.187,209.078 197.194 C 223.324 197.201,223.381 197.188,223.847 193.800 C 223.969 192.920,224.412 191.357,224.834 190.326 C 225.255 189.295,225.600 187.804,225.600 187.013 C 225.600 186.222,225.939 184.545,226.353 183.287 C 226.767 182.029,227.195 180.145,227.304 179.100 C 227.614 176.125,227.842 176.000,232.963 176.000 C 236.402 176.000,237.950 176.184,239.704 176.800 C 240.956 177.240,242.240 177.600,242.557 177.600 C 243.287 177.600,248.211 180.183,249.800 181.400 C 252.931 183.796,257.971 189.732,257.993 191.046 C 257.997 191.291,258.334 191.921,258.742 192.446 C 259.150 192.971,259.616 194.114,259.776 194.986 C 259.937 195.859,260.364 197.119,260.725 197.786 C 261.676 199.547,261.696 209.783,260.751 211.226 C 260.393 211.771,259.973 212.973,259.817 213.897 C 259.661 214.821,259.189 216.015,258.767 216.551 C 258.345 217.087,258.000 217.680,258.000 217.868 C 258.000 219.894,248.256 229.600,246.222 229.600 C 246.059 229.600,245.469 229.960,244.909 230.400 C 244.350 230.840,243.511 231.204,243.046 231.209 C 242.581 231.214,241.390 231.613,240.400 232.096 C 238.641 232.954,238.150 232.979,219.000 233.187 L 199.400 233.400 199.400 245.346 L 199.400 257.292 217.700 257.225 C 231.629 257.173,236.453 257.029,237.900 256.620 C 238.945 256.325,241.000 255.983,242.468 255.860 C 244.002 255.731,245.784 255.288,246.662 254.818 C 247.501 254.368,248.586 254.000,249.073 254.000 C 249.560 254.000,250.804 253.550,251.838 253.000 C 252.873 252.450,254.042 252.000,254.436 252.000 C 254.830 252.000,255.255 251.835,255.380 251.632 C 255.505 251.430,256.821 250.594,258.304 249.773 C 259.787 248.953,261.302 247.994,261.671 247.641 C 262.039 247.288,263.001 246.550,263.808 246.000 C 267.751 243.312,276.053 233.784,276.970 230.894 C 277.108 230.460,277.576 229.784,278.010 229.391 C 278.445 228.998,278.800 228.336,278.800 227.920 C 278.800 227.504,279.250 226.318,279.800 225.285 C 280.350 224.252,280.801 223.045,280.803 222.603 C 280.804 222.161,281.163 221.260,281.600 220.600 C 282.037 219.940,282.396 218.844,282.397 218.164 C 282.399 217.484,282.793 215.504,283.272 213.764 C 284.427 209.577,284.574 199.269,283.520 196.367 C 283.154 195.359,282.731 193.379,282.579 191.967 C 282.427 190.555,281.965 188.839,281.551 188.153 C 281.138 187.467,280.800 186.565,280.800 186.150 C 280.800 185.734,280.376 184.585,279.857 183.597 C 279.339 182.609,278.795 181.305,278.650 180.700 C 278.504 180.095,278.230 179.600,278.041 179.600 C 277.852 179.600,277.457 179.015,277.163 178.300 C 276.604 176.939,275.307 174.883,274.358 173.853 C 274.051 173.520,273.350 172.584,272.800 171.773 C 271.780 170.268,265.798 164.000,265.382 164.000 C 265.092 164.000,261.892 161.528,261.529 161.024 C 261.216 160.589,260.104 159.985,255.744 157.885 C 254.015 157.052,251.970 156.042,251.200 155.641 C 250.430 155.239,249.099 154.783,248.242 154.626 C 247.384 154.470,246.304 154.104,245.842 153.813 C 245.379 153.521,243.740 153.162,242.200 153.013 C 240.660 152.864,237.861 152.500,235.980 152.204 C 233.964 151.886,231.234 151.756,229.331 151.886 L 226.102 152.107 225.051 150.561 C 224.473 149.710,223.998 148.561,223.996 148.007 C 223.994 147.453,223.550 146.100,223.009 145.000 C 222.468 143.900,222.019 142.668,222.013 142.263 C 222.006 141.858,221.640 141.069,221.200 140.509 C 220.760 139.950,220.400 139.088,220.400 138.595 C 220.400 138.102,220.102 137.451,219.738 137.149 C 219.374 136.847,218.824 135.997,218.516 135.259 C 218.207 134.522,217.783 133.712,217.572 133.459 C 216.773 132.502,215.200 129.950,215.200 129.611 C 215.200 129.416,214.547 128.569,213.749 127.728 C 212.951 126.888,211.890 125.570,211.392 124.800 C 210.075 122.763,205.750 118.453,201.458 114.898 C 197.227 111.395,197.367 111.493,191.800 108.105 C 190.285 107.183,185.315 104.800,184.907 104.800 C 184.682 104.800,184.278 104.535,184.009 104.211 C 183.740 103.886,182.863 103.505,182.060 103.362 C 181.257 103.219,180.060 102.786,179.400 102.398 C 178.740 102.011,177.323 101.569,176.251 101.415 C 175.179 101.262,173.649 100.810,172.851 100.411 C 171.932 99.951,170.060 99.599,167.746 99.450 C 165.736 99.321,163.666 99.055,163.146 98.859 C 161.737 98.329,154.201 98.053,151.000 98.414 " stroke="none" fill="#060606" fill-rule="evenodd"></path><path id="path1" d="M0.000 200.000 L 0.000 400.000 200.000 400.000 L 400.000 400.000 400.000 200.000 L 400.000 0.000 200.000 0.000 L 0.000 0.000 0.000 200.000 M244.171 63.429 C 244.729 63.986,244.800 66.840,244.800 88.806 L 244.800 113.555 243.911 114.177 C 243.158 114.704,241.326 114.800,231.975 114.800 L 220.928 114.800 220.464 113.781 C 219.869 112.476,219.799 65.380,220.390 63.826 L 220.780 62.800 232.162 62.800 C 241.975 62.800,243.629 62.887,244.171 63.429 M295.578 77.310 C 297.268 78.391,297.710 78.656,301.547 80.887 C 303.168 81.829,305.328 83.085,306.347 83.678 C 307.366 84.271,308.650 84.998,309.200 85.294 C 313.350 87.525,313.850 88.276,312.599 90.400 C 312.275 90.950,311.711 92.075,311.345 92.900 C 310.978 93.725,310.524 94.400,310.336 94.400 C 310.148 94.400,309.705 95.120,309.353 96.000 C 309.001 96.880,308.580 97.600,308.417 97.600 C 308.255 97.600,307.825 98.275,307.463 99.100 C 307.101 99.925,306.360 101.320,305.817 102.200 C 305.273 103.080,304.555 104.373,304.220 105.073 C 303.886 105.773,303.427 106.460,303.200 106.600 C 302.973 106.740,302.514 107.427,302.180 108.127 C 301.845 108.827,301.131 110.120,300.592 111.000 C 300.053 111.880,299.241 113.320,298.789 114.200 C 298.336 115.080,297.569 116.457,297.083 117.261 C 296.597 118.064,295.500 119.954,294.644 121.461 C 293.789 122.967,292.865 124.470,292.592 124.800 C 292.318 125.130,291.963 125.850,291.801 126.400 C 291.640 126.950,291.181 127.760,290.781 128.200 C 290.381 128.640,289.869 129.486,289.644 130.079 C 288.786 132.345,285.426 132.783,284.193 130.789 C 284.050 130.557,283.227 130.084,282.366 129.740 C 281.505 129.395,280.800 128.980,280.800 128.817 C 280.800 128.655,280.125 128.219,279.300 127.850 C 277.812 127.185,276.479 126.446,273.400 124.581 C 272.520 124.048,271.080 123.257,270.200 122.824 C 266.859 121.181,266.269 120.201,267.600 118.509 C 268.040 117.950,268.400 117.268,268.400 116.995 C 268.400 116.722,268.680 116.265,269.023 115.981 C 269.366 115.696,269.912 114.909,270.237 114.232 C 270.562 113.554,271.269 112.280,271.808 111.400 C 272.347 110.520,273.162 109.080,273.619 108.200 C 274.962 105.611,275.863 104.047,276.349 103.462 C 276.599 103.160,277.459 101.673,278.260 100.157 C 279.061 98.641,279.849 97.310,280.013 97.200 C 280.176 97.090,280.607 96.370,280.969 95.600 C 281.332 94.830,282.065 93.480,282.599 92.600 C 284.354 89.708,286.717 85.473,287.749 83.368 C 288.082 82.691,288.634 81.904,288.977 81.619 C 289.320 81.335,289.600 80.924,289.600 80.707 C 289.600 77.783,293.159 75.761,295.578 77.310 M167.616 98.073 C 168.394 98.412,170.211 98.815,171.653 98.970 C 173.096 99.124,174.798 99.533,175.438 99.880 C 176.077 100.226,177.478 100.657,178.551 100.838 C 179.624 101.020,180.794 101.430,181.151 101.750 C 181.508 102.070,182.469 102.456,183.286 102.608 C 184.103 102.760,184.976 103.130,185.226 103.431 C 185.476 103.732,186.297 104.094,187.050 104.236 C 187.803 104.377,188.640 104.808,188.910 105.193 C 189.179 105.578,189.997 106.024,190.727 106.184 C 191.457 106.344,192.149 106.722,192.264 107.022 C 192.379 107.323,192.862 107.684,193.337 107.825 C 194.303 108.111,197.185 109.912,197.800 110.615 C 198.020 110.867,198.677 111.326,199.259 111.636 C 202.730 113.484,214.000 124.974,214.000 126.664 C 214.000 126.959,214.279 127.200,214.621 127.200 C 214.962 127.200,215.425 127.726,215.649 128.368 C 215.873 129.010,216.290 129.626,216.576 129.736 C 216.863 129.845,217.225 130.445,217.381 131.068 C 217.537 131.690,218.010 132.522,218.432 132.916 C 218.855 133.309,219.200 133.872,219.200 134.167 C 219.200 134.461,219.461 134.918,219.780 135.183 C 220.098 135.448,220.574 136.325,220.838 137.132 C 221.101 137.939,221.650 139.029,222.058 139.554 C 222.466 140.079,222.800 140.921,222.800 141.425 C 222.800 141.930,223.091 142.634,223.447 142.989 C 223.802 143.345,224.256 144.393,224.456 145.318 C 224.656 146.243,225.073 147.540,225.384 148.200 C 225.695 148.860,226.045 149.715,226.162 150.100 C 226.352 150.726,227.019 150.801,232.487 150.810 C 235.849 150.815,239.230 150.988,240.000 151.193 C 242.172 151.774,244.853 152.358,246.487 152.606 C 247.305 152.730,248.207 153.064,248.491 153.348 C 248.775 153.632,249.703 153.977,250.553 154.115 C 251.403 154.253,252.392 154.621,252.750 154.932 C 253.107 155.244,254.088 155.720,254.928 155.990 C 255.768 156.260,256.546 156.715,256.656 157.001 C 256.766 157.287,257.473 157.637,258.228 157.779 C 258.982 157.920,259.600 158.217,259.600 158.439 C 259.600 158.660,260.185 159.109,260.900 159.438 C 262.572 160.206,264.907 161.891,265.319 162.627 C 265.495 162.942,265.889 163.200,266.193 163.200 C 266.497 163.200,266.860 163.560,267.000 164.000 C 267.140 164.440,267.428 164.800,267.640 164.800 C 268.158 164.800,270.800 167.464,270.800 167.987 C 270.800 168.214,271.074 168.400,271.410 168.400 C 271.745 168.400,272.191 168.850,272.400 169.400 C 272.609 169.950,272.947 170.400,273.151 170.400 C 273.354 170.400,273.895 170.985,274.351 171.700 C 274.808 172.415,275.411 173.359,275.691 173.797 C 275.971 174.235,276.605 175.104,277.100 175.728 C 277.595 176.351,278.000 177.090,278.000 177.369 C 278.000 177.648,278.342 178.186,278.760 178.564 C 279.179 178.943,279.633 179.852,279.771 180.586 C 279.909 181.319,280.282 182.136,280.600 182.400 C 280.918 182.664,281.296 183.537,281.440 184.340 C 281.584 185.143,281.962 186.099,282.280 186.464 C 282.599 186.830,283.002 188.090,283.177 189.264 C 283.351 190.439,283.828 192.120,284.236 193.000 C 284.895 194.421,284.978 195.697,284.978 204.400 C 284.978 213.103,284.895 214.379,284.236 215.800 C 283.828 216.680,283.351 218.361,283.177 219.536 C 283.002 220.710,282.576 221.985,282.230 222.367 C 281.883 222.750,281.600 223.427,281.600 223.872 C 281.600 224.317,281.150 225.527,280.600 226.562 C 280.050 227.596,279.600 228.675,279.600 228.959 C 279.600 229.243,279.240 229.802,278.800 230.200 C 278.360 230.598,277.997 231.121,277.994 231.362 C 277.991 231.603,277.351 232.700,276.573 233.800 C 275.795 234.900,274.790 236.385,274.340 237.100 C 273.889 237.815,273.353 238.400,273.148 238.400 C 272.943 238.400,272.658 238.715,272.516 239.100 C 272.264 239.779,266.985 245.073,265.123 246.514 C 261.826 249.064,261.031 249.600,260.545 249.600 C 260.245 249.600,260.000 249.786,260.000 250.014 C 260.000 250.242,259.235 250.788,258.300 251.228 C 257.365 251.668,256.150 252.288,255.600 252.608 C 255.050 252.927,254.285 253.191,253.900 253.194 C 253.515 253.197,253.200 253.351,253.200 253.536 C 253.200 253.990,251.360 254.800,250.328 254.800 C 249.870 254.800,248.933 255.139,248.247 255.554 C 247.561 255.969,245.952 256.433,244.671 256.586 C 243.391 256.739,241.681 257.165,240.871 257.532 C 238.979 258.391,199.968 258.803,198.970 257.975 C 197.951 257.129,198.144 232.965,199.174 232.414 C 199.674 232.146,206.297 232.000,217.925 232.000 C 232.353 232.000,236.169 231.890,237.251 231.444 C 237.993 231.139,239.565 230.759,240.744 230.601 C 241.995 230.433,243.202 229.998,243.644 229.556 C 244.060 229.140,244.844 228.800,245.386 228.800 C 245.942 228.800,246.548 228.472,246.775 228.046 C 246.997 227.631,247.589 227.186,248.089 227.057 C 248.590 226.928,249.870 226.008,250.934 225.011 C 251.997 224.015,253.032 223.200,253.234 223.200 C 253.435 223.200,253.600 222.955,253.600 222.655 C 253.600 222.153,255.212 219.823,256.543 218.400 C 256.852 218.070,257.233 217.203,257.390 216.473 C 257.547 215.743,257.913 215.055,258.204 214.943 C 258.495 214.831,258.850 213.809,258.994 212.670 C 259.137 211.532,259.526 209.746,259.859 208.701 C 260.882 205.487,259.664 196.099,257.900 193.610 C 257.515 193.067,257.200 192.330,257.200 191.973 C 257.200 191.616,256.840 190.998,256.400 190.600 C 255.960 190.202,255.600 189.665,255.600 189.408 C 255.600 189.150,255.150 188.517,254.600 188.000 C 254.050 187.483,253.600 186.893,253.600 186.687 C 253.600 186.064,249.064 181.994,248.089 181.743 C 247.589 181.614,246.997 181.169,246.775 180.754 C 246.553 180.339,245.952 180.000,245.440 180.000 C 244.927 180.000,244.079 179.667,243.554 179.260 C 243.018 178.845,241.554 178.400,240.214 178.247 C 238.902 178.096,237.299 177.709,236.653 177.386 C 235.211 176.667,230.724 176.613,229.495 177.300 C 228.144 178.055,228.013 178.390,228.006 181.113 C 228.003 182.499,227.716 184.292,227.366 185.113 C 227.018 185.931,226.566 187.746,226.361 189.147 C 226.157 190.547,225.727 192.167,225.407 192.747 C 225.086 193.326,224.629 194.573,224.391 195.518 C 223.774 197.974,223.612 198.000,208.803 198.000 C 193.792 198.000,193.574 197.957,194.974 195.251 C 195.289 194.641,195.829 193.908,196.174 193.622 C 196.518 193.336,196.800 192.788,196.800 192.405 C 196.800 192.022,197.160 191.250,197.600 190.691 C 198.040 190.131,198.400 189.425,198.400 189.121 C 198.400 188.818,198.771 187.856,199.225 186.985 C 199.678 186.113,200.228 184.320,200.447 183.000 C 200.666 181.680,201.105 180.201,201.423 179.714 C 202.418 178.188,202.246 162.629,201.209 160.344 C 200.774 159.385,200.413 157.970,200.407 157.200 C 200.402 156.430,200.059 155.245,199.645 154.567 C 199.231 153.888,198.761 152.718,198.600 151.967 C 198.439 151.215,197.968 150.278,197.553 149.884 C 197.139 149.491,196.800 148.840,196.800 148.438 C 196.800 148.037,196.485 147.277,196.100 146.749 C 195.715 146.222,195.172 145.433,194.894 144.995 C 193.521 142.836,192.764 141.721,192.113 140.902 C 190.725 139.155,185.569 134.000,185.210 134.000 C 185.009 134.000,184.610 133.676,184.323 133.280 C 184.035 132.884,183.228 132.327,182.529 132.043 C 181.830 131.759,181.160 131.273,181.041 130.963 C 180.922 130.654,180.584 130.400,180.290 130.400 C 179.996 130.400,179.145 129.950,178.400 129.400 C 177.655 128.850,176.779 128.400,176.454 128.400 C 176.129 128.400,175.547 128.114,175.160 127.764 C 174.774 127.414,173.682 126.954,172.735 126.741 C 171.787 126.528,170.739 126.111,170.406 125.814 C 170.073 125.516,168.720 125.143,167.400 124.983 C 166.080 124.823,163.942 124.357,162.648 123.946 C 159.332 122.894,151.864 122.905,148.342 123.966 C 146.944 124.388,144.810 124.857,143.600 125.009 C 142.390 125.162,141.127 125.526,140.794 125.820 C 140.461 126.114,139.413 126.528,138.465 126.741 C 137.518 126.954,136.426 127.414,136.040 127.764 C 135.653 128.114,135.071 128.400,134.746 128.400 C 134.421 128.400,133.545 128.850,132.800 129.400 C 132.055 129.950,131.281 130.400,131.080 130.400 C 130.880 130.400,130.181 130.850,129.527 131.400 C 128.873 131.950,128.126 132.400,127.866 132.400 C 127.605 132.400,127.168 132.760,126.893 133.200 C 126.618 133.640,126.217 134.000,126.001 134.000 C 125.786 134.000,124.268 135.395,122.628 137.100 C 120.988 138.805,119.301 140.560,118.878 141.000 C 118.455 141.440,117.990 142.181,117.844 142.647 C 117.699 143.113,117.224 143.816,116.790 144.209 C 116.355 144.602,116.000 145.138,116.000 145.400 C 116.000 145.662,115.650 146.193,115.223 146.579 C 114.795 146.966,114.328 147.816,114.185 148.469 C 114.042 149.121,113.680 149.748,113.381 149.862 C 113.083 149.977,112.719 150.867,112.573 151.840 C 112.427 152.813,111.991 154.012,111.604 154.505 C 110.420 156.012,110.097 161.050,111.164 161.388 C 111.624 161.535,112.187 162.002,112.414 162.427 C 112.642 162.852,113.016 163.200,113.246 163.200 C 113.658 163.200,119.600 168.942,119.600 169.339 C 119.600 169.451,120.410 170.388,121.400 171.422 C 122.390 172.455,123.200 173.541,123.200 173.834 C 123.200 174.128,123.588 174.730,124.061 175.171 C 125.713 176.710,124.685 180.000,122.552 180.000 C 122.044 180.000,121.443 180.345,121.217 180.767 C 120.991 181.190,120.266 181.654,119.606 181.799 C 118.945 181.944,118.269 182.299,118.102 182.588 C 117.936 182.877,117.170 183.413,116.400 183.778 C 114.606 184.630,112.862 185.622,111.611 186.503 C 111.067 186.887,110.308 187.200,109.925 187.200 C 109.542 187.200,109.043 187.545,108.817 187.967 C 108.591 188.390,107.820 188.864,107.103 189.021 C 106.387 189.179,105.565 189.643,105.277 190.054 C 104.385 191.328,100.800 189.689,100.800 188.007 C 100.800 187.515,96.941 183.600,96.456 183.600 C 96.227 183.600,95.885 183.324,95.697 182.987 C 95.347 182.362,93.899 181.469,90.944 180.058 C 90.033 179.622,89.181 179.092,89.049 178.880 C 88.918 178.667,87.796 178.367,86.557 178.212 C 85.317 178.057,83.582 177.676,82.701 177.365 C 80.589 176.620,75.644 176.641,74.642 177.399 C 74.225 177.715,72.823 178.093,71.528 178.240 C 70.233 178.387,68.774 178.819,68.286 179.201 C 67.799 179.583,66.815 180.024,66.100 180.180 C 65.385 180.336,64.800 180.633,64.800 180.840 C 64.800 181.048,64.307 181.438,63.704 181.709 C 62.764 182.130,61.466 183.363,56.407 188.642 C 55.963 189.105,55.600 189.780,55.600 190.142 C 55.600 190.504,55.240 191.160,54.800 191.600 C 54.360 192.040,54.000 192.722,54.000 193.115 C 54.000 193.509,53.606 194.544,53.125 195.415 C 51.644 198.100,51.537 209.871,52.968 212.895 C 53.535 214.095,54.000 215.437,54.000 215.877 C 54.000 216.316,54.360 217.002,54.800 217.400 C 55.240 217.798,55.600 218.450,55.600 218.848 C 55.600 219.246,55.960 219.765,56.400 220.000 C 56.840 220.235,57.200 220.620,57.200 220.855 C 57.200 221.500,62.442 226.529,63.700 227.091 C 64.305 227.362,64.800 227.752,64.800 227.960 C 64.800 228.167,65.332 228.453,65.981 228.596 C 66.631 228.739,67.576 229.180,68.081 229.577 C 68.587 229.974,69.986 230.434,71.192 230.600 C 72.397 230.765,74.085 231.148,74.942 231.450 C 76.173 231.885,80.181 232.000,94.022 232.000 C 109.417 232.000,111.619 232.076,112.171 232.629 C 113.139 233.596,113.115 256.828,112.146 257.797 C 111.139 258.804,70.835 258.548,68.963 257.522 C 68.282 257.149,66.752 256.722,65.563 256.572 C 64.373 256.423,62.839 255.963,62.153 255.550 C 61.467 255.138,60.514 254.800,60.034 254.800 C 59.555 254.800,58.318 254.350,57.285 253.800 C 56.252 253.250,55.208 252.800,54.965 252.800 C 54.723 252.800,54.198 252.440,53.800 252.000 C 53.402 251.560,52.754 251.200,52.361 251.200 C 51.967 251.200,51.410 250.869,51.123 250.465 C 50.835 250.060,50.150 249.615,49.600 249.476 C 49.050 249.336,47.812 248.497,46.849 247.611 C 45.887 246.725,44.952 246.000,44.772 246.000 C 44.593 246.000,43.080 244.605,41.410 242.900 C 37.044 238.442,36.800 238.165,36.800 237.658 C 36.800 237.406,36.630 237.200,36.421 237.200 C 35.997 237.200,33.200 233.138,33.200 232.521 C 33.200 232.302,32.850 231.807,32.423 231.421 C 31.995 231.034,31.528 230.184,31.385 229.531 C 31.242 228.879,30.876 228.251,30.573 228.134 C 30.270 228.018,29.899 227.265,29.748 226.461 C 29.598 225.658,29.161 224.550,28.777 224.000 C 28.394 223.450,27.963 222.195,27.821 221.210 C 27.678 220.226,27.303 219.135,26.987 218.786 C 26.654 218.418,26.257 216.645,26.043 214.575 C 25.841 212.609,25.482 210.280,25.247 209.400 C 24.707 207.381,24.706 201.963,25.246 199.600 C 25.471 198.610,25.831 196.272,26.044 194.405 C 26.258 192.538,26.691 190.616,27.007 190.133 C 27.323 189.651,27.694 188.479,27.831 187.528 C 27.968 186.578,28.399 185.343,28.790 184.784 C 29.180 184.226,29.624 183.203,29.775 182.512 C 29.927 181.821,30.298 181.050,30.600 180.800 C 30.902 180.550,31.260 179.836,31.397 179.214 C 31.534 178.592,31.995 177.766,32.423 177.379 C 32.850 176.993,33.200 176.448,33.200 176.169 C 33.200 175.890,33.650 175.127,34.200 174.473 C 34.750 173.819,35.200 173.080,35.200 172.830 C 35.200 172.580,35.484 172.266,35.831 172.133 C 36.177 172.000,36.623 171.465,36.821 170.945 C 37.018 170.425,37.455 170.000,37.790 170.000 C 38.126 170.000,38.400 169.774,38.400 169.498 C 38.400 169.223,39.435 167.952,40.700 166.674 C 44.110 163.231,44.590 162.800,45.018 162.800 C 45.232 162.800,45.632 162.440,45.907 162.000 C 46.182 161.560,46.656 161.200,46.961 161.200 C 47.265 161.200,47.621 160.922,47.752 160.582 C 47.882 160.242,48.576 159.686,49.294 159.347 C 51.423 158.342,53.210 157.314,53.928 156.682 C 54.297 156.356,55.173 155.967,55.872 155.819 C 56.572 155.670,57.352 155.299,57.605 154.994 C 57.858 154.689,58.906 154.315,59.933 154.163 C 60.960 154.012,62.229 153.553,62.754 153.144 C 63.311 152.710,64.356 152.400,65.264 152.400 C 66.120 152.400,67.850 152.038,69.109 151.595 C 71.022 150.923,72.436 150.789,77.714 150.777 C 84.585 150.762,85.200 150.666,85.200 149.606 C 85.200 149.217,85.450 148.690,85.757 148.436 C 86.063 148.182,86.439 147.125,86.592 146.087 C 86.746 145.049,87.108 143.930,87.398 143.600 C 87.688 143.270,88.124 142.256,88.366 141.347 C 88.608 140.437,89.074 139.470,89.403 139.198 C 89.731 138.925,90.000 138.399,90.000 138.029 C 90.000 137.658,90.450 136.745,91.000 136.000 C 91.550 135.255,92.000 134.422,92.000 134.151 C 92.000 133.879,92.302 133.355,92.672 132.985 C 93.378 132.279,94.428 130.549,95.273 128.699 C 95.550 128.093,96.097 127.496,96.488 127.372 C 96.880 127.248,97.200 126.898,97.200 126.594 C 97.200 125.530,105.289 116.687,108.458 114.286 C 108.976 113.894,110.120 113.041,111.000 112.391 C 111.880 111.741,112.865 110.982,113.190 110.705 C 114.632 109.470,117.059 108.014,117.686 108.007 C 118.063 108.003,118.557 107.655,118.783 107.233 C 119.009 106.810,119.753 106.342,120.437 106.192 C 121.122 106.042,122.023 105.577,122.441 105.159 C 122.858 104.742,123.536 104.400,123.946 104.400 C 124.356 104.400,125.121 104.063,125.646 103.652 C 126.171 103.241,127.215 102.770,127.967 102.606 C 128.718 102.441,129.888 101.969,130.567 101.555 C 131.245 101.141,132.302 100.802,132.916 100.801 C 133.530 100.801,134.723 100.447,135.569 100.016 C 136.414 99.585,138.342 99.111,139.853 98.962 C 141.364 98.814,142.822 98.518,143.093 98.304 C 144.639 97.082,164.900 96.891,167.616 98.073 M351.264 127.000 C 352.309 128.760,353.450 130.740,353.799 131.400 C 354.149 132.060,354.959 133.500,355.599 134.600 C 356.240 135.700,356.997 137.050,357.283 137.600 C 357.867 138.723,358.937 140.450,360.083 142.118 C 361.486 144.161,360.850 145.048,356.400 147.258 C 355.850 147.531,355.130 147.967,354.800 148.228 C 354.470 148.488,352.959 149.352,351.443 150.148 C 349.927 150.945,348.440 151.801,348.138 152.051 C 347.595 152.502,346.485 153.136,343.400 154.760 C 342.520 155.223,341.080 156.039,340.200 156.574 C 339.320 157.108,338.060 157.800,337.400 158.111 C 336.740 158.422,335.953 158.974,335.651 159.338 C 335.349 159.702,334.771 160.000,334.367 160.000 C 333.962 160.000,333.309 160.341,332.916 160.758 C 332.522 161.175,331.570 161.812,330.800 162.174 C 329.269 162.893,327.471 163.895,325.000 165.405 C 324.120 165.943,322.725 166.684,321.900 167.052 C 321.075 167.420,320.400 167.847,320.400 168.000 C 320.400 168.153,319.678 168.604,318.796 169.002 C 316.805 169.900,315.515 169.443,314.597 167.514 C 314.253 166.791,313.534 165.480,312.999 164.600 C 311.476 162.093,310.497 160.340,309.603 158.517 C 309.149 157.591,308.600 156.723,308.383 156.589 C 308.165 156.455,307.711 155.773,307.372 155.073 C 306.470 153.207,305.372 151.289,304.836 150.643 C 304.029 149.671,304.736 148.154,306.331 147.433 C 308.140 146.614,310.210 145.455,310.931 144.857 C 311.229 144.610,312.536 143.846,313.836 143.159 C 315.136 142.471,316.470 141.677,316.800 141.394 C 317.130 141.111,318.030 140.585,318.800 140.224 C 321.551 138.936,323.056 138.056,323.573 137.433 C 323.862 137.085,324.257 136.800,324.452 136.800 C 324.868 136.800,332.107 132.756,332.400 132.360 C 332.510 132.211,333.230 131.793,334.000 131.431 C 334.770 131.068,336.120 130.334,337.000 129.799 C 339.507 128.276,341.260 127.297,343.083 126.403 C 344.009 125.949,344.878 125.397,345.014 125.177 C 345.384 124.578,347.690 123.640,348.582 123.725 C 349.099 123.775,350.009 124.886,351.264 127.000 M373.520 192.480 C 374.339 193.299,374.193 216.240,373.367 216.557 C 372.284 216.973,322.470 216.837,322.211 216.418 C 322.081 216.207,321.975 210.799,321.975 204.400 C 321.975 198.001,322.081 192.593,322.211 192.382 C 322.585 191.777,372.913 191.873,373.520 192.480 M185.130 224.314 C 185.209 224.876,184.670 226.088,183.730 227.460 C 182.888 228.688,182.024 229.987,181.808 230.346 C 181.245 231.286,178.290 235.949,176.262 239.100 C 173.795 242.934,170.459 248.093,169.991 248.800 C 169.772 249.130,168.975 250.390,168.219 251.600 C 167.462 252.810,166.564 254.085,166.222 254.434 C 165.880 254.782,165.597 255.232,165.593 255.434 C 165.589 255.635,165.046 256.610,164.387 257.600 C 163.728 258.590,163.014 259.670,162.800 260.000 C 162.587 260.330,161.483 262.040,160.347 263.800 C 159.211 265.560,157.589 268.041,156.741 269.313 C 153.929 273.532,152.348 273.177,174.500 273.296 L 193.800 273.400 193.924 274.473 C 194.011 275.229,193.804 275.677,193.224 275.987 C 192.771 276.230,192.400 276.678,192.400 276.983 C 192.400 277.289,191.950 278.073,191.400 278.727 C 190.850 279.381,190.400 280.044,190.400 280.200 C 190.400 280.356,189.950 281.019,189.400 281.673 C 188.850 282.327,188.400 283.109,188.400 283.411 C 188.400 283.713,188.174 284.104,187.899 284.280 C 187.623 284.456,186.933 285.320,186.365 286.200 C 184.895 288.476,184.247 289.442,182.100 292.552 C 181.055 294.066,180.020 295.583,179.800 295.924 C 179.580 296.264,178.902 297.276,178.293 298.171 C 176.782 300.394,174.490 303.868,173.260 305.800 C 172.700 306.680,172.037 307.580,171.788 307.800 C 171.538 308.020,171.079 308.674,170.767 309.253 C 170.235 310.240,167.987 313.583,165.211 317.514 C 164.545 318.457,164.000 319.328,164.000 319.449 C 164.000 319.833,161.421 323.386,160.900 323.720 C 160.625 323.896,160.400 324.287,160.400 324.589 C 160.400 324.891,159.995 325.649,159.500 326.272 C 159.005 326.896,158.420 327.696,158.200 328.051 C 157.980 328.405,156.900 330.002,155.800 331.600 C 154.700 333.198,153.620 334.796,153.400 335.151 C 153.180 335.506,152.640 336.334,152.200 336.990 C 151.760 337.646,151.220 338.480,151.000 338.843 C 150.574 339.545,147.735 343.691,145.415 347.000 C 144.643 348.100,144.009 349.216,144.006 349.480 C 144.003 349.744,143.770 350.104,143.490 350.280 C 142.995 350.590,139.241 355.990,138.679 357.200 C 138.526 357.530,137.771 358.610,137.002 359.600 C 136.232 360.590,135.426 361.760,135.209 362.200 C 134.992 362.640,133.821 364.350,132.606 366.000 C 131.392 367.650,130.201 369.495,129.960 370.100 C 129.719 370.705,129.364 371.200,129.171 371.200 C 128.978 371.200,128.543 371.737,128.204 372.393 C 127.230 374.275,125.416 375.044,124.622 373.910 C 123.754 372.670,123.843 371.615,125.000 369.438 C 125.550 368.404,126.006 367.342,126.013 367.079 C 126.019 366.815,126.468 365.700,127.009 364.600 C 127.550 363.500,127.994 362.261,127.996 361.847 C 127.998 361.433,128.338 360.533,128.751 359.847 C 129.165 359.161,129.619 357.943,129.762 357.140 C 129.905 356.337,130.286 355.460,130.611 355.191 C 130.935 354.922,131.202 354.319,131.204 353.851 C 131.206 353.383,131.650 352.100,132.191 351.000 C 132.732 349.900,133.181 348.730,133.189 348.400 C 133.197 348.070,133.541 347.245,133.955 346.567 C 134.369 345.888,134.836 344.718,134.993 343.967 C 135.150 343.215,135.504 342.240,135.779 341.800 C 136.054 341.360,136.512 340.280,136.796 339.400 C 137.081 338.520,137.558 337.445,137.857 337.011 C 138.156 336.577,138.400 335.959,138.400 335.637 C 138.400 335.316,138.738 334.321,139.152 333.426 C 139.565 332.532,140.178 330.990,140.514 330.000 C 141.621 326.735,142.436 324.622,143.223 322.974 C 143.650 322.079,144.000 321.084,144.000 320.763 C 144.000 320.441,144.260 319.806,144.578 319.352 C 144.896 318.898,145.366 317.694,145.623 316.675 C 145.879 315.657,146.339 314.617,146.644 314.363 C 146.950 314.110,147.200 313.531,147.200 313.077 C 147.200 312.624,147.550 311.521,147.977 310.626 C 148.712 309.088,149.070 308.171,150.800 303.400 C 151.199 302.300,151.815 300.835,152.169 300.145 C 152.524 299.455,152.855 298.195,152.907 297.345 L 153.000 295.800 133.361 295.600 C 110.843 295.371,111.871 295.543,113.644 292.293 C 114.272 291.142,114.969 289.750,115.193 289.200 C 115.417 288.650,115.768 287.930,115.975 287.600 C 116.181 287.270,118.724 282.271,121.626 276.492 C 124.528 270.713,127.039 265.900,127.207 265.796 C 127.374 265.692,127.632 265.125,127.780 264.535 C 127.928 263.946,128.398 263.020,128.825 262.478 C 129.251 261.936,129.600 261.178,129.600 260.795 C 129.600 260.412,129.861 259.882,130.180 259.617 C 130.498 259.352,130.974 258.475,131.238 257.668 C 131.501 256.861,132.050 255.771,132.458 255.246 C 132.866 254.721,133.200 253.978,133.200 253.595 C 133.200 253.212,133.461 252.682,133.780 252.417 C 134.098 252.152,134.574 251.275,134.838 250.468 C 135.101 249.661,135.650 248.571,136.058 248.046 C 136.466 247.521,136.800 246.784,136.800 246.408 C 136.800 246.032,137.160 245.398,137.600 245.000 C 138.040 244.602,138.400 243.968,138.400 243.592 C 138.400 243.216,138.749 242.464,139.175 241.922 C 139.602 241.380,140.075 240.411,140.228 239.768 C 140.380 239.126,140.828 238.240,141.223 237.800 C 141.618 237.360,142.062 236.512,142.210 235.916 C 142.357 235.320,142.719 234.633,143.014 234.389 C 143.308 234.145,143.662 233.430,143.800 232.800 C 143.938 232.170,144.310 231.441,144.626 231.179 C 144.942 230.917,145.200 230.479,145.200 230.207 C 145.200 229.934,145.628 229.081,146.151 228.310 C 146.674 227.539,147.314 226.266,147.574 225.480 C 148.301 223.275,148.518 223.252,167.600 223.329 L 185.000 223.400 185.130 224.314 M318.483 239.777 C 319.242 240.094,320.096 240.634,320.381 240.977 C 320.665 241.320,321.050 241.600,321.235 241.600 C 321.550 241.600,324.979 243.470,328.337 245.473 C 329.142 245.952,330.381 246.617,331.091 246.948 C 331.801 247.280,332.611 247.752,332.891 247.997 C 333.171 248.242,333.978 248.748,334.684 249.121 C 335.981 249.808,340.871 252.657,343.545 254.286 C 344.345 254.773,345.630 255.466,346.400 255.826 C 347.170 256.185,348.070 256.711,348.400 256.994 C 348.730 257.277,350.064 258.071,351.364 258.759 C 352.664 259.446,353.971 260.210,354.269 260.457 C 354.817 260.912,356.577 261.932,358.400 262.851 C 360.911 264.116,361.500 265.643,360.000 267.000 C 359.560 267.398,359.200 267.942,359.200 268.208 C 359.200 268.474,358.864 269.121,358.454 269.646 C 358.044 270.171,357.136 271.674,356.438 272.986 C 355.740 274.298,354.935 275.648,354.650 275.986 C 354.365 276.324,353.900 277.185,353.617 277.900 C 353.334 278.615,352.972 279.200,352.812 279.200 C 352.652 279.200,352.219 279.875,351.850 280.700 C 350.227 284.330,349.607 285.200,348.646 285.200 C 347.415 285.200,345.079 284.218,344.419 283.423 C 344.135 283.080,343.678 282.800,343.405 282.800 C 343.132 282.800,342.479 282.464,341.954 282.054 C 341.429 281.644,339.926 280.736,338.614 280.038 C 337.302 279.340,335.952 278.519,335.614 278.215 C 335.276 277.911,334.512 277.541,333.916 277.392 C 333.320 277.243,332.615 276.859,332.348 276.538 C 332.082 276.217,331.309 275.693,330.632 275.374 C 329.954 275.055,328.680 274.353,327.800 273.814 C 326.920 273.275,325.480 272.459,324.600 272.000 C 323.720 271.541,322.339 270.769,321.532 270.283 C 317.233 267.697,312.032 264.800,311.689 264.800 C 311.474 264.800,311.065 264.520,310.781 264.177 C 310.496 263.834,309.709 263.288,309.032 262.963 C 304.259 260.673,303.711 259.851,305.348 257.438 C 305.894 256.635,306.726 255.217,307.198 254.289 C 307.671 253.360,308.584 251.790,309.227 250.800 C 309.871 249.810,310.671 248.460,311.005 247.800 C 311.339 247.140,312.144 245.700,312.795 244.600 C 313.446 243.500,314.259 242.007,314.602 241.282 C 314.945 240.558,315.625 239.804,316.113 239.608 C 316.601 239.411,317.023 239.239,317.051 239.225 C 317.079 239.211,317.724 239.460,318.483 239.777 M288.304 277.113 C 289.194 277.799,290.121 279.252,291.418 282.000 C 291.782 282.770,292.311 283.670,292.594 284.000 C 292.877 284.330,293.671 285.664,294.359 286.964 C 295.046 288.264,295.810 289.571,296.057 289.869 C 296.537 290.447,297.442 292.019,298.781 294.600 C 299.238 295.480,300.050 296.920,300.586 297.800 C 301.123 298.680,301.785 299.850,302.058 300.400 C 302.331 300.950,302.807 301.703,303.114 302.072 C 303.712 302.790,304.123 303.512,306.542 308.085 C 307.390 309.688,308.335 311.284,308.642 311.631 C 308.949 311.979,309.200 312.450,309.200 312.678 C 309.200 312.906,309.574 313.568,310.032 314.150 C 314.072 319.286,313.931 321.244,309.368 323.378 C 308.691 323.695,307.918 324.217,307.652 324.538 C 307.385 324.859,306.680 325.243,306.084 325.392 C 305.488 325.541,304.724 325.911,304.386 326.215 C 304.048 326.519,302.698 327.340,301.386 328.038 C 300.074 328.736,298.571 329.644,298.046 330.054 C 297.521 330.464,296.903 330.800,296.672 330.800 C 296.441 330.800,295.880 331.136,295.426 331.548 C 293.442 333.343,289.600 331.075,289.600 328.108 C 289.600 327.882,289.320 327.465,288.977 327.181 C 288.634 326.896,288.089 326.109,287.766 325.432 C 287.443 324.754,286.646 323.300,285.995 322.200 C 285.344 321.100,284.538 319.660,284.203 319.000 C 283.868 318.340,283.154 317.080,282.616 316.200 C 282.079 315.320,281.415 314.150,281.142 313.600 C 280.869 313.050,280.417 312.324,280.139 311.986 C 279.860 311.648,279.060 310.298,278.362 308.986 C 277.664 307.674,276.756 306.171,276.346 305.646 C 275.936 305.121,275.600 304.460,275.600 304.177 C 275.600 303.893,275.150 303.127,274.600 302.473 C 274.050 301.819,273.600 301.078,273.600 300.826 C 273.600 300.574,273.278 299.880,272.884 299.284 C 271.900 297.794,271.352 296.868,270.350 295.000 C 269.879 294.120,269.357 293.310,269.191 293.200 C 269.026 293.090,268.603 292.370,268.253 291.600 C 267.903 290.830,267.395 289.896,267.125 289.523 C 266.478 288.633,267.560 287.371,269.847 286.347 C 270.753 285.941,271.720 285.337,271.996 285.005 C 272.272 284.672,272.701 284.391,272.949 284.381 C 273.197 284.370,275.020 283.383,277.000 282.187 C 278.980 280.991,281.320 279.645,282.200 279.195 C 283.080 278.745,284.520 277.935,285.400 277.395 C 287.302 276.228,287.170 276.241,288.304 277.113 M244.171 295.029 C 245.128 295.985,245.128 344.415,244.171 345.371 C 243.629 345.913,241.975 346.000,232.162 346.000 L 220.780 346.000 220.390 344.974 C 219.842 343.533,219.865 296.200,220.414 295.174 C 220.991 294.095,243.103 293.960,244.171 295.029 " stroke="none" fill="#fbfbfb" fill-rule="evenodd"></path><path id="path2" d="M220.390 63.826 C 219.799 65.380,219.869 112.476,220.464 113.781 L 220.928 114.800 231.975 114.800 C 241.326 114.800,243.158 114.704,243.911 114.177 L 244.800 113.555 244.800 88.806 C 244.800 66.840,244.729 63.986,244.171 63.429 C 243.629 62.887,241.975 62.800,232.162 62.800 L 220.780 62.800 220.390 63.826 M290.867 78.356 C 290.170 79.432,289.600 80.490,289.600 80.707 C 289.600 80.924,289.320 81.335,288.977 81.619 C 288.634 81.904,288.082 82.691,287.749 83.368 C 286.717 85.473,284.354 89.708,282.599 92.600 C 282.065 93.480,281.332 94.830,280.969 95.600 C 280.607 96.370,280.176 97.090,280.013 97.200 C 279.849 97.310,279.061 98.641,278.260 100.157 C 277.459 101.673,276.599 103.160,276.349 103.462 C 275.863 104.047,274.962 105.611,273.619 108.200 C 273.162 109.080,272.347 110.520,271.808 111.400 C 271.269 112.280,270.562 113.554,270.237 114.232 C 269.912 114.909,269.366 115.696,269.023 115.981 C 268.680 116.265,268.400 116.722,268.400 116.995 C 268.400 117.268,268.040 117.950,267.600 118.509 C 266.269 120.201,266.859 121.181,270.200 122.824 C 271.080 123.257,272.520 124.048,273.400 124.581 C 276.479 126.446,277.812 127.185,279.300 127.850 C 280.125 128.219,280.800 128.655,280.800 128.817 C 280.800 128.980,281.505 129.395,282.366 129.740 C 283.227 130.084,284.050 130.557,284.193 130.789 C 285.426 132.783,288.786 132.345,289.644 130.079 C 289.869 129.486,290.381 128.640,290.781 128.200 C 291.181 127.760,291.640 126.950,291.801 126.400 C 291.963 125.850,292.318 125.130,292.592 124.800 C 292.865 124.470,293.789 122.967,294.644 121.461 C 295.500 119.954,296.597 118.064,297.083 117.261 C 297.569 116.457,298.336 115.080,298.789 114.200 C 299.241 113.320,300.053 111.880,300.592 111.000 C 301.131 110.120,301.845 108.827,302.180 108.127 C 302.514 107.427,302.973 106.740,303.200 106.600 C 303.427 106.460,303.886 105.773,304.220 105.073 C 304.555 104.373,305.273 103.080,305.817 102.200 C 306.360 101.320,307.101 99.925,307.463 99.100 C 307.825 98.275,308.255 97.600,308.417 97.600 C 308.580 97.600,309.001 96.880,309.353 96.000 C 309.705 95.120,310.148 94.400,310.336 94.400 C 310.524 94.400,310.978 93.725,311.345 92.900 C 311.711 92.075,312.275 90.950,312.599 90.400 C 313.850 88.276,313.350 87.525,309.200 85.294 C 308.650 84.998,307.366 84.271,306.347 83.678 C 305.328 83.085,303.168 81.829,301.547 80.887 C 297.710 78.656,297.268 78.391,295.578 77.310 C 293.323 75.866,292.339 76.084,290.867 78.356 M346.531 124.214 C 345.832 124.524,345.150 124.957,345.014 125.177 C 344.878 125.397,344.009 125.949,343.083 126.403 C 341.260 127.297,339.507 128.276,337.000 129.799 C 336.120 130.334,334.770 131.068,334.000 131.431 C 333.230 131.793,332.510 132.211,332.400 132.360 C 332.107 132.756,324.868 136.800,324.452 136.800 C 324.257 136.800,323.862 137.085,323.573 137.433 C 323.056 138.056,321.551 138.936,318.800 140.224 C 318.030 140.585,317.130 141.111,316.800 141.394 C 316.470 141.677,315.136 142.471,313.836 143.159 C 312.536 143.846,311.229 144.610,310.931 144.857 C 310.210 145.455,308.140 146.614,306.331 147.433 C 304.736 148.154,304.029 149.671,304.836 150.643 C 305.372 151.289,306.470 153.207,307.372 155.073 C 307.711 155.773,308.165 156.455,308.383 156.589 C 308.600 156.723,309.149 157.591,309.603 158.517 C 310.497 160.340,311.476 162.093,312.999 164.600 C 313.534 165.480,314.253 166.791,314.597 167.514 C 315.515 169.443,316.805 169.900,318.796 169.002 C 319.678 168.604,320.400 168.153,320.400 168.000 C 320.400 167.847,321.075 167.420,321.900 167.052 C 322.725 166.684,324.120 165.943,325.000 165.405 C 327.471 163.895,329.269 162.893,330.800 162.174 C 331.570 161.812,332.522 161.175,332.916 160.758 C 333.309 160.341,333.962 160.000,334.367 160.000 C 334.771 160.000,335.349 159.702,335.651 159.338 C 335.953 158.974,336.740 158.422,337.400 158.111 C 338.060 157.800,339.320 157.108,340.200 156.574 C 341.080 156.039,342.520 155.223,343.400 154.760 C 346.485 153.136,347.595 152.502,348.138 152.051 C 348.440 151.801,349.927 150.945,351.443 150.148 C 352.959 149.352,354.470 148.488,354.800 148.228 C 355.130 147.967,355.850 147.531,356.400 147.258 C 360.850 145.048,361.486 144.161,360.083 142.118 C 358.937 140.450,357.867 138.723,357.283 137.600 C 356.997 137.050,356.240 135.700,355.599 134.600 C 354.959 133.500,354.149 132.060,353.799 131.400 C 349.919 124.078,348.963 123.134,346.531 124.214 M322.211 192.382 C 322.081 192.593,321.975 198.001,321.975 204.400 C 321.975 210.799,322.081 216.207,322.211 216.418 C 322.470 216.837,372.284 216.973,373.367 216.557 C 374.193 216.240,374.339 193.299,373.520 192.480 C 372.913 191.873,322.585 191.777,322.211 192.382 M316.113 239.608 C 315.625 239.804,314.945 240.558,314.602 241.282 C 314.259 242.007,313.446 243.500,312.795 244.600 C 312.144 245.700,311.339 247.140,311.005 247.800 C 310.671 248.460,309.871 249.810,309.227 250.800 C 308.584 251.790,307.671 253.360,307.198 254.289 C 306.726 255.217,305.894 256.635,305.348 257.438 C 303.711 259.851,304.259 260.673,309.032 262.963 C 309.709 263.288,310.496 263.834,310.781 264.177 C 311.065 264.520,311.474 264.800,311.689 264.800 C 312.032 264.800,317.233 267.697,321.532 270.283 C 322.339 270.769,323.720 271.541,324.600 272.000 C 325.480 272.459,326.920 273.275,327.800 273.814 C 328.680 274.353,329.954 275.055,330.632 275.374 C 331.309 275.693,332.082 276.217,332.348 276.538 C 332.615 276.859,333.320 277.243,333.916 277.392 C 334.512 277.541,335.276 277.911,335.614 278.215 C 335.952 278.519,337.302 279.340,338.614 280.038 C 339.926 280.736,341.429 281.644,341.954 282.054 C 342.479 282.464,343.132 282.800,343.405 282.800 C 343.678 282.800,344.135 283.080,344.419 283.423 C 345.079 284.218,347.415 285.200,348.646 285.200 C 349.607 285.200,350.227 284.330,351.850 280.700 C 352.219 279.875,352.652 279.200,352.812 279.200 C 352.972 279.200,353.334 278.615,353.617 277.900 C 353.900 277.185,354.365 276.324,354.650 275.986 C 354.935 275.648,355.740 274.298,356.438 272.986 C 357.136 271.674,358.044 270.171,358.454 269.646 C 358.864 269.121,359.200 268.474,359.200 268.208 C 359.200 267.942,359.560 267.398,360.000 267.000 C 361.500 265.643,360.911 264.116,358.400 262.851 C 356.577 261.932,354.817 260.912,354.269 260.457 C 353.971 260.210,352.664 259.446,351.364 258.759 C 350.064 258.071,348.730 257.277,348.400 256.994 C 348.070 256.711,347.170 256.185,346.400 255.826 C 345.630 255.466,344.345 254.773,343.545 254.286 C 340.871 252.657,335.981 249.808,334.684 249.121 C 333.978 248.748,333.171 248.242,332.891 247.997 C 332.611 247.752,331.801 247.280,331.091 246.948 C 330.381 246.617,329.142 245.952,328.337 245.473 C 324.979 243.470,321.550 241.600,321.235 241.600 C 321.050 241.600,320.665 241.320,320.381 240.977 C 319.982 240.496,317.316 239.094,317.051 239.225 C 317.023 239.239,316.601 239.411,316.113 239.608 M285.400 277.395 C 284.520 277.935,283.080 278.745,282.200 279.195 C 281.320 279.645,278.980 280.991,277.000 282.187 C 275.020 283.383,273.197 284.370,272.949 284.381 C 272.701 284.391,272.272 284.672,271.996 285.005 C 271.720 285.337,270.753 285.941,269.847 286.347 C 267.560 287.371,266.478 288.633,267.125 289.523 C 267.395 289.896,267.903 290.830,268.253 291.600 C 268.603 292.370,269.026 293.090,269.191 293.200 C 269.357 293.310,269.879 294.120,270.350 295.000 C 271.352 296.868,271.900 297.794,272.884 299.284 C 273.278 299.880,273.600 300.574,273.600 300.826 C 273.600 301.078,274.050 301.819,274.600 302.473 C 275.150 303.127,275.600 303.893,275.600 304.177 C 275.600 304.460,275.936 305.121,276.346 305.646 C 276.756 306.171,277.664 307.674,278.362 308.986 C 279.060 310.298,279.860 311.648,280.139 311.986 C 280.417 312.324,280.869 313.050,281.142 313.600 C 281.415 314.150,282.079 315.320,282.616 316.200 C 283.154 317.080,283.868 318.340,284.203 319.000 C 284.538 319.660,285.344 321.100,285.995 322.200 C 286.646 323.300,287.443 324.754,287.766 325.432 C 288.089 326.109,288.634 326.896,288.977 327.181 C 289.320 327.465,289.600 327.882,289.600 328.108 C 289.600 331.075,293.442 333.343,295.426 331.548 C 295.880 331.136,296.441 330.800,296.672 330.800 C 296.903 330.800,297.521 330.464,298.046 330.054 C 298.571 329.644,300.074 328.736,301.386 328.038 C 302.698 327.340,304.048 326.519,304.386 326.215 C 304.724 325.911,305.488 325.541,306.084 325.392 C 306.680 325.243,307.385 324.859,307.652 324.538 C 307.918 324.217,308.691 323.695,309.368 323.378 C 313.931 321.244,314.072 319.286,310.032 314.150 C 309.574 313.568,309.200 312.906,309.200 312.678 C 309.200 312.450,308.949 311.979,308.642 311.631 C 308.335 311.284,307.390 309.688,306.542 308.085 C 304.123 303.512,303.712 302.790,303.114 302.072 C 302.807 301.703,302.331 300.950,302.058 300.400 C 301.785 299.850,301.123 298.680,300.586 297.800 C 300.050 296.920,299.238 295.480,298.781 294.600 C 297.442 292.019,296.537 290.447,296.057 289.869 C 295.810 289.571,295.046 288.264,294.359 286.964 C 293.671 285.664,292.877 284.330,292.594 284.000 C 292.311 283.670,291.782 282.770,291.418 282.000 C 288.848 276.559,287.920 275.849,285.400 277.395 M220.414 295.174 C 219.865 296.200,219.842 343.533,220.390 344.974 L 220.780 346.000 232.162 346.000 C 241.975 346.000,243.629 345.913,244.171 345.371 C 245.128 344.415,245.128 295.985,244.171 295.029 C 243.103 293.960,220.991 294.095,220.414 295.174 " stroke="none" fill="#fcc407" fill-rule="evenodd"></path><path id="path3" d="M151.700 98.276 C 152.085 98.376,152.715 98.376,153.100 98.276 C 153.485 98.175,153.170 98.093,152.400 98.093 C 151.630 98.093,151.315 98.175,151.700 98.276 M158.100 98.276 C 158.485 98.376,159.115 98.376,159.500 98.276 C 159.885 98.175,159.570 98.093,158.800 98.093 C 158.030 98.093,157.715 98.175,158.100 98.276 M227.293 179.200 C 227.293 179.970,227.375 180.285,227.476 179.900 C 227.576 179.515,227.576 178.885,227.476 178.500 C 227.375 178.115,227.293 178.430,227.293 179.200 M261.342 204.600 C 261.341 206.580,261.408 207.440,261.492 206.512 C 261.576 205.584,261.577 203.964,261.495 202.912 C 261.412 201.860,261.343 202.620,261.342 204.600 M50.120 204.400 C 50.120 205.610,50.195 206.105,50.287 205.500 C 50.378 204.895,50.378 203.905,50.287 203.300 C 50.195 202.695,50.120 203.190,50.120 204.400 M26.493 208.800 C 26.493 209.570,26.575 209.885,26.676 209.500 C 26.776 209.115,26.776 208.485,26.676 208.100 C 26.575 207.715,26.493 208.030,26.493 208.800 M166.267 224.392 C 147.621 224.618,148.000 224.567,148.000 226.861 C 148.000 227.250,147.655 227.891,147.232 228.284 C 146.810 228.678,146.336 229.540,146.179 230.200 C 146.021 230.860,145.674 231.670,145.408 232.000 C 145.141 232.330,144.244 233.995,143.414 235.700 C 142.584 237.405,141.760 238.800,141.584 238.800 C 141.408 238.800,141.140 239.385,140.989 240.100 C 140.837 240.815,140.392 241.760,140.000 242.200 C 139.608 242.640,139.160 243.597,139.005 244.327 C 138.851 245.057,138.476 245.749,138.173 245.866 C 137.870 245.982,137.509 246.678,137.371 247.412 C 137.233 248.147,136.779 249.057,136.360 249.436 C 135.942 249.814,135.600 250.432,135.600 250.808 C 135.600 251.184,135.251 251.936,134.825 252.478 C 134.398 253.020,133.923 253.989,133.768 254.632 C 133.614 255.274,133.153 256.122,132.744 256.516 C 132.335 256.909,132.000 257.560,132.000 257.962 C 132.000 258.363,131.651 259.136,131.225 259.678 C 130.798 260.220,130.332 261.131,130.189 261.702 C 130.045 262.274,129.584 263.052,129.164 263.433 C 128.744 263.813,128.400 264.522,128.400 265.008 C 128.400 265.494,128.065 266.321,127.655 266.846 C 127.245 267.371,126.773 268.250,126.605 268.800 C 126.438 269.350,125.963 270.122,125.550 270.516 C 125.138 270.909,124.800 271.560,124.800 271.962 C 124.800 272.363,124.467 273.121,124.061 273.646 C 123.655 274.171,123.190 275.140,123.029 275.800 C 122.867 276.460,122.390 277.322,121.968 277.716 C 121.545 278.109,121.200 278.846,121.200 279.354 C 121.200 279.861,120.840 280.602,120.400 281.000 C 119.960 281.398,119.600 282.032,119.600 282.408 C 119.600 282.784,119.266 283.521,118.858 284.046 C 118.450 284.571,117.901 285.659,117.639 286.465 C 117.376 287.270,116.900 288.030,116.581 288.152 C 116.261 288.275,116.000 288.806,116.000 289.334 C 116.000 289.861,115.644 290.745,115.208 291.299 C 112.321 294.969,111.394 294.800,134.384 294.800 C 155.564 294.800,155.128 294.753,154.574 296.962 C 154.431 297.533,154.161 298.000,153.975 298.000 C 153.789 298.000,153.521 298.675,153.381 299.500 C 153.240 300.325,152.812 301.450,152.429 302.000 C 152.045 302.550,151.620 303.697,151.483 304.550 C 151.346 305.402,150.967 306.395,150.640 306.756 C 150.314 307.116,149.877 308.166,149.670 309.088 C 149.463 310.010,149.002 311.055,148.647 311.411 C 148.291 311.766,148.000 312.560,148.000 313.175 C 148.000 313.789,147.646 314.742,147.213 315.292 C 146.781 315.842,146.306 317.049,146.158 317.973 C 146.010 318.897,145.649 319.894,145.355 320.187 C 145.062 320.481,144.655 321.462,144.452 322.369 C 144.248 323.275,143.806 324.436,143.470 324.950 C 143.133 325.463,142.732 326.554,142.579 327.373 C 142.425 328.193,142.065 328.954,141.779 329.063 C 141.494 329.173,141.137 330.014,140.988 330.931 C 140.838 331.849,140.396 333.140,140.006 333.800 C 139.616 334.460,139.171 335.710,139.016 336.579 C 138.861 337.447,138.389 338.596,137.967 339.133 C 137.545 339.669,137.200 340.509,137.200 341.000 C 137.200 341.491,136.868 342.321,136.461 342.846 C 136.055 343.371,135.613 344.497,135.478 345.350 C 135.344 346.202,134.967 347.195,134.640 347.556 C 134.314 347.916,133.877 348.966,133.670 349.888 C 133.463 350.810,133.002 351.855,132.647 352.211 C 132.291 352.566,132.000 353.304,132.000 353.849 C 132.000 354.395,131.640 355.507,131.201 356.321 C 130.761 357.134,130.214 358.565,129.985 359.500 C 129.756 360.435,129.409 361.200,129.213 361.200 C 129.017 361.200,128.654 362.176,128.406 363.369 C 128.159 364.562,127.715 365.739,127.420 365.984 C 127.125 366.228,126.760 367.088,126.609 367.893 C 126.458 368.698,125.989 369.796,125.567 370.333 C 124.844 371.253,124.548 372.814,125.009 373.276 C 125.587 373.854,127.280 372.996,127.822 371.850 C 128.864 369.649,129.781 368.221,130.500 367.681 C 130.885 367.391,131.200 366.966,131.200 366.735 C 131.200 366.504,131.605 365.797,132.100 365.164 C 134.433 362.180,134.800 361.641,134.800 361.200 C 134.800 360.732,135.757 359.361,137.500 357.331 C 137.995 356.755,138.400 356.138,138.400 355.962 C 138.400 355.505,140.659 352.215,141.389 351.609 C 141.725 351.330,142.000 350.894,142.000 350.640 C 142.000 350.386,142.360 349.870,142.800 349.493 C 143.240 349.116,143.600 348.562,143.600 348.262 C 143.600 347.962,144.045 347.196,144.590 346.558 C 145.134 345.921,145.809 345.124,146.090 344.788 C 146.370 344.451,146.912 343.506,147.294 342.688 C 147.675 341.869,148.170 341.200,148.394 341.200 C 148.617 341.200,148.800 340.956,148.800 340.658 C 148.800 340.361,149.250 339.631,149.800 339.038 C 150.350 338.444,150.800 337.726,150.800 337.441 C 150.800 337.157,151.160 336.598,151.600 336.200 C 152.040 335.802,152.400 335.244,152.400 334.961 C 152.400 334.677,152.724 334.210,153.120 333.923 C 153.516 333.635,154.078 332.815,154.369 332.100 C 154.659 331.385,155.033 330.800,155.200 330.800 C 155.367 330.800,155.727 330.260,156.000 329.600 C 156.273 328.940,156.651 328.400,156.838 328.400 C 157.026 328.400,157.478 327.815,157.844 327.100 C 158.209 326.385,158.754 325.656,159.054 325.480 C 159.354 325.304,159.600 324.899,159.600 324.580 C 159.600 324.261,159.915 323.683,160.300 323.295 C 160.685 322.906,161.228 322.141,161.507 321.595 C 161.786 321.048,162.556 319.880,163.219 319.000 C 163.882 318.120,164.584 317.040,164.778 316.600 C 165.116 315.834,165.495 315.305,167.500 312.806 C 167.995 312.189,168.400 311.530,168.400 311.342 C 168.401 311.154,168.851 310.477,169.400 309.838 C 169.950 309.199,170.400 308.440,170.400 308.152 C 170.400 307.864,170.760 307.435,171.200 307.200 C 171.640 306.965,172.000 306.572,172.000 306.327 C 172.000 306.083,172.675 304.900,173.500 303.700 C 174.325 302.499,175.190 301.188,175.423 300.786 C 175.961 299.857,177.146 298.212,178.300 296.792 C 178.795 296.183,179.203 295.530,179.207 295.342 C 179.215 294.972,181.456 291.560,181.920 291.212 C 182.205 290.998,182.622 290.375,186.341 284.600 C 187.474 282.840,188.761 280.980,189.201 280.466 C 189.640 279.952,190.000 279.277,190.000 278.966 C 190.000 278.655,190.189 278.400,190.420 278.400 C 190.652 278.400,191.089 277.815,191.392 277.100 C 191.694 276.385,192.322 275.569,192.787 275.287 C 194.704 274.122,192.925 274.000,174.025 274.000 C 158.408 274.000,154.815 273.900,154.448 273.457 C 153.821 272.703,154.339 270.461,155.253 269.972 C 155.664 269.752,156.000 269.336,156.000 269.048 C 156.000 268.760,156.360 268.198,156.800 267.800 C 157.240 267.402,157.600 266.848,157.600 266.569 C 157.600 266.290,158.050 265.527,158.600 264.873 C 159.150 264.219,159.600 263.556,159.600 263.398 C 159.600 262.836,162.115 259.241,162.653 259.035 C 162.954 258.920,163.200 258.530,163.200 258.168 C 163.200 257.470,165.561 253.600,165.987 253.600 C 166.126 253.600,166.467 252.970,166.746 252.200 C 167.024 251.430,167.425 250.800,167.636 250.800 C 167.847 250.800,168.177 250.386,168.370 249.880 C 168.562 249.373,169.323 248.097,170.060 247.044 C 170.797 245.991,171.618 244.740,171.885 244.265 C 172.152 243.789,172.562 243.130,172.795 242.800 C 173.682 241.545,175.097 239.340,176.966 236.300 C 177.609 235.255,178.272 234.400,178.440 234.400 C 178.609 234.400,178.870 233.995,179.022 233.500 C 179.374 232.351,181.642 228.800,182.024 228.800 C 182.183 228.800,182.425 228.355,182.561 227.811 C 182.698 227.267,183.191 226.467,183.656 226.033 C 184.434 225.309,184.476 223.868,183.713 224.092 C 183.541 224.142,175.690 224.277,166.267 224.392 M85.300 233.100 C 90.085 233.163,97.915 233.163,102.700 233.100 C 107.485 233.036,103.570 232.984,94.000 232.984 C 84.430 232.984,80.515 233.036,85.300 233.100 M208.900 233.100 C 213.905 233.163,222.095 233.163,227.100 233.100 C 232.105 233.036,228.010 232.984,218.000 232.984 C 207.990 232.984,203.895 233.036,208.900 233.100 M209.300 257.500 C 213.645 257.564,220.755 257.564,225.100 257.500 C 229.445 257.435,225.890 257.382,217.200 257.382 C 208.510 257.382,204.955 257.435,209.300 257.500 " stroke="none" fill="#6ab2dc" fill-rule="evenodd"></path><path id="path4" d="M145.693 97.585 C 144.533 97.766,143.363 98.090,143.093 98.304 C 142.822 98.518,141.364 98.814,139.853 98.962 C 138.342 99.111,136.414 99.585,135.569 100.016 C 134.723 100.447,133.530 100.801,132.916 100.801 C 132.302 100.802,131.245 101.141,130.567 101.555 C 129.888 101.969,128.718 102.441,127.967 102.606 C 127.215 102.770,126.171 103.241,125.646 103.652 C 125.121 104.063,124.356 104.400,123.946 104.400 C 123.536 104.400,122.858 104.742,122.441 105.159 C 122.023 105.577,121.122 106.042,120.437 106.192 C 119.753 106.342,119.009 106.810,118.783 107.233 C 118.557 107.655,118.063 108.003,117.686 108.007 C 117.059 108.014,114.632 109.470,113.190 110.705 C 112.865 110.982,111.880 111.741,111.000 112.391 C 110.120 113.041,108.976 113.894,108.458 114.286 C 105.289 116.687,97.200 125.530,97.200 126.594 C 97.200 126.898,96.880 127.248,96.488 127.372 C 96.097 127.496,95.550 128.093,95.273 128.699 C 94.428 130.549,93.378 132.279,92.672 132.985 C 92.302 133.355,92.000 133.879,92.000 134.151 C 92.000 134.422,91.550 135.255,91.000 136.000 C 90.450 136.745,90.000 137.658,90.000 138.029 C 90.000 138.399,89.731 138.925,89.403 139.198 C 89.074 139.470,88.608 140.437,88.366 141.347 C 88.124 142.256,87.688 143.270,87.398 143.600 C 87.108 143.930,86.746 145.049,86.592 146.087 C 86.439 147.125,86.063 148.182,85.757 148.436 C 85.450 148.690,85.200 149.217,85.200 149.606 C 85.200 150.666,84.585 150.762,77.714 150.777 C 72.436 150.789,71.022 150.923,69.109 151.595 C 67.850 152.038,66.120 152.400,65.264 152.400 C 64.356 152.400,63.311 152.710,62.754 153.144 C 62.229 153.553,60.960 154.012,59.933 154.163 C 58.906 154.315,57.858 154.689,57.605 154.994 C 57.352 155.299,56.572 155.670,55.872 155.819 C 55.173 155.967,54.297 156.356,53.928 156.682 C 53.210 157.314,51.423 158.342,49.294 159.347 C 48.576 159.686,47.882 160.242,47.752 160.582 C 47.621 160.922,47.265 161.200,46.961 161.200 C 46.656 161.200,46.182 161.560,45.907 162.000 C 45.632 162.440,45.232 162.800,45.018 162.800 C 44.590 162.800,44.110 163.231,40.700 166.674 C 39.435 167.952,38.400 169.223,38.400 169.498 C 38.400 169.774,38.126 170.000,37.790 170.000 C 37.455 170.000,37.018 170.425,36.821 170.945 C 36.623 171.465,36.177 172.000,35.831 172.133 C 35.484 172.266,35.200 172.580,35.200 172.830 C 35.200 173.080,34.750 173.819,34.200 174.473 C 33.650 175.127,33.200 175.890,33.200 176.169 C 33.200 176.448,32.850 176.993,32.423 177.379 C 31.995 177.766,31.534 178.592,31.397 179.214 C 31.260 179.836,30.902 180.550,30.600 180.800 C 30.298 181.050,29.927 181.821,29.775 182.512 C 29.624 183.203,29.180 184.226,28.790 184.784 C 28.399 185.343,27.968 186.578,27.831 187.528 C 27.694 188.479,27.323 189.651,27.007 190.133 C 26.691 190.616,26.258 192.538,26.044 194.405 C 25.831 196.272,25.471 198.610,25.246 199.600 C 24.706 201.963,24.707 207.381,25.247 209.400 C 25.482 210.280,25.841 212.609,26.043 214.575 C 26.257 216.645,26.654 218.418,26.987 218.786 C 27.303 219.135,27.678 220.226,27.821 221.210 C 27.963 222.195,28.394 223.450,28.777 224.000 C 29.161 224.550,29.598 225.658,29.748 226.461 C 29.899 227.265,30.270 228.018,30.573 228.134 C 30.876 228.251,31.242 228.879,31.385 229.531 C 31.528 230.184,31.995 231.034,32.423 231.421 C 32.850 231.807,33.200 232.302,33.200 232.521 C 33.200 233.138,35.997 237.200,36.421 237.200 C 36.630 237.200,36.800 237.406,36.800 237.658 C 36.800 238.165,37.044 238.442,41.410 242.900 C 43.080 244.605,44.593 246.000,44.772 246.000 C 44.952 246.000,45.887 246.725,46.849 247.611 C 47.812 248.497,49.050 249.336,49.600 249.476 C 50.150 249.615,50.835 250.060,51.123 250.465 C 51.410 250.869,51.967 251.200,52.361 251.200 C 52.754 251.200,53.402 251.560,53.800 252.000 C 54.198 252.440,54.723 252.800,54.965 252.800 C 55.208 252.800,56.252 253.250,57.285 253.800 C 58.318 254.350,59.555 254.800,60.034 254.800 C 60.514 254.800,61.467 255.138,62.153 255.550 C 62.839 255.963,64.373 256.423,65.563 256.572 C 66.752 256.722,68.282 257.149,68.963 257.522 C 70.835 258.548,111.139 258.804,112.146 257.797 C 113.115 256.828,113.139 233.596,112.171 232.629 C 111.619 232.076,109.417 232.000,94.022 232.000 C 80.181 232.000,76.173 231.885,74.942 231.450 C 74.085 231.148,72.397 230.765,71.192 230.600 C 69.986 230.434,68.587 229.974,68.081 229.577 C 67.576 229.180,66.631 228.739,65.981 228.596 C 65.332 228.453,64.800 228.167,64.800 227.960 C 64.800 227.752,64.305 227.362,63.700 227.091 C 62.442 226.529,57.200 221.500,57.200 220.855 C 57.200 220.620,56.840 220.235,56.400 220.000 C 55.960 219.765,55.600 219.246,55.600 218.848 C 55.600 218.450,55.240 217.798,54.800 217.400 C 54.360 217.002,54.000 216.316,54.000 215.877 C 54.000 215.437,53.535 214.095,52.968 212.895 C 51.537 209.871,51.644 198.100,53.125 195.415 C 53.606 194.544,54.000 193.509,54.000 193.115 C 54.000 192.722,54.360 192.040,54.800 191.600 C 55.240 191.160,55.600 190.504,55.600 190.142 C 55.600 189.780,55.963 189.105,56.407 188.642 C 61.466 183.363,62.764 182.130,63.704 181.709 C 64.307 181.438,64.800 181.048,64.800 180.840 C 64.800 180.633,65.385 180.336,66.100 180.180 C 66.815 180.024,67.799 179.583,68.286 179.201 C 68.774 178.819,70.233 178.387,71.528 178.240 C 72.823 178.093,74.225 177.715,74.642 177.399 C 75.644 176.641,80.589 176.620,82.701 177.365 C 83.582 177.676,85.317 178.057,86.557 178.212 C 87.796 178.367,88.918 178.667,89.049 178.880 C 89.181 179.092,90.033 179.622,90.944 180.058 C 93.899 181.469,95.347 182.362,95.697 182.987 C 95.885 183.324,96.227 183.600,96.456 183.600 C 96.941 183.600,100.800 187.515,100.800 188.007 C 100.800 189.689,104.385 191.328,105.277 190.054 C 105.565 189.643,106.387 189.179,107.103 189.021 C 107.820 188.864,108.591 188.390,108.817 187.967 C 109.043 187.545,109.542 187.200,109.925 187.200 C 110.308 187.200,111.067 186.887,111.611 186.503 C 112.862 185.622,114.606 184.630,116.400 183.778 C 117.170 183.413,117.936 182.877,118.102 182.588 C 118.269 182.299,118.945 181.944,119.606 181.799 C 120.266 181.654,120.991 181.190,121.217 180.767 C 121.443 180.345,122.044 180.000,122.552 180.000 C 124.685 180.000,125.713 176.710,124.061 175.171 C 123.588 174.730,123.200 174.128,123.200 173.834 C 123.200 173.541,122.390 172.455,121.400 171.422 C 120.410 170.388,119.600 169.451,119.600 169.339 C 119.600 168.942,113.658 163.200,113.246 163.200 C 113.016 163.200,112.642 162.852,112.414 162.427 C 112.187 162.002,111.624 161.535,111.164 161.388 C 110.097 161.050,110.420 156.012,111.604 154.505 C 111.991 154.012,112.427 152.813,112.573 151.840 C 112.719 150.867,113.083 149.977,113.381 149.862 C 113.680 149.748,114.042 149.121,114.185 148.469 C 114.328 147.816,114.795 146.966,115.223 146.579 C 115.650 146.193,116.000 145.662,116.000 145.400 C 116.000 145.138,116.355 144.602,116.790 144.209 C 117.224 143.816,117.699 143.113,117.844 142.647 C 117.990 142.181,118.455 141.440,118.878 141.000 C 119.301 140.560,120.988 138.805,122.628 137.100 C 124.268 135.395,125.786 134.000,126.001 134.000 C 126.217 134.000,126.618 133.640,126.893 133.200 C 127.168 132.760,127.605 132.400,127.866 132.400 C 128.126 132.400,128.873 131.950,129.527 131.400 C 130.181 130.850,130.880 130.400,131.080 130.400 C 131.281 130.400,132.055 129.950,132.800 129.400 C 133.545 128.850,134.421 128.400,134.746 128.400 C 135.071 128.400,135.653 128.114,136.040 127.764 C 136.426 127.414,137.518 126.954,138.465 126.741 C 139.413 126.528,140.461 126.114,140.794 125.820 C 141.127 125.526,142.390 125.162,143.600 125.009 C 144.810 124.857,146.944 124.388,148.342 123.966 C 151.864 122.905,159.332 122.894,162.648 123.946 C 163.942 124.357,166.080 124.823,167.400 124.983 C 168.720 125.143,170.073 125.516,170.406 125.814 C 170.739 126.111,171.787 126.528,172.735 126.741 C 173.682 126.954,174.774 127.414,175.160 127.764 C 175.547 128.114,176.129 128.400,176.454 128.400 C 176.779 128.400,177.655 128.850,178.400 129.400 C 179.145 129.950,179.996 130.400,180.290 130.400 C 180.584 130.400,180.922 130.654,181.041 130.963 C 181.160 131.273,181.830 131.759,182.529 132.043 C 183.228 132.327,184.035 132.884,184.323 133.280 C 184.610 133.676,185.009 134.000,185.210 134.000 C 185.569 134.000,190.725 139.155,192.113 140.902 C 192.764 141.721,193.521 142.836,194.894 144.995 C 195.172 145.433,195.715 146.222,196.100 146.749 C 196.485 147.277,196.800 148.037,196.800 148.438 C 196.800 148.840,197.139 149.491,197.553 149.884 C 197.968 150.278,198.439 151.215,198.600 151.967 C 198.761 152.718,199.231 153.888,199.645 154.567 C 200.059 155.245,200.402 156.430,200.407 157.200 C 200.413 157.970,200.774 159.385,201.209 160.344 C 202.246 162.629,202.418 178.188,201.423 179.714 C 201.105 180.201,200.666 181.680,200.447 183.000 C 200.228 184.320,199.678 186.113,199.225 186.985 C 198.771 187.856,198.400 188.818,198.400 189.121 C 198.400 189.425,198.040 190.131,197.600 190.691 C 197.160 191.250,196.800 192.022,196.800 192.405 C 196.800 192.788,196.518 193.336,196.174 193.622 C 195.829 193.908,195.289 194.641,194.974 195.251 C 193.574 197.957,193.792 198.000,208.803 198.000 C 223.612 198.000,223.774 197.974,224.391 195.518 C 224.629 194.573,225.086 193.326,225.407 192.747 C 225.727 192.167,226.157 190.547,226.361 189.147 C 226.566 187.746,227.018 185.931,227.366 185.113 C 227.716 184.292,228.003 182.499,228.006 181.113 C 228.013 178.390,228.144 178.055,229.495 177.300 C 230.724 176.613,235.211 176.667,236.653 177.386 C 237.299 177.709,238.902 178.096,240.214 178.247 C 241.554 178.400,243.018 178.845,243.554 179.260 C 244.079 179.667,244.927 180.000,245.440 180.000 C 245.952 180.000,246.553 180.339,246.775 180.754 C 246.997 181.169,247.589 181.614,248.089 181.743 C 249.064 181.994,253.600 186.064,253.600 186.687 C 253.600 186.893,254.050 187.483,254.600 188.000 C 255.150 188.517,255.600 189.150,255.600 189.408 C 255.600 189.665,255.960 190.202,256.400 190.600 C 256.840 190.998,257.200 191.616,257.200 191.973 C 257.200 192.330,257.515 193.067,257.900 193.610 C 259.664 196.099,260.882 205.487,259.859 208.701 C 259.526 209.746,259.137 211.532,258.994 212.670 C 258.850 213.809,258.495 214.831,258.204 214.943 C 257.913 215.055,257.547 215.743,257.390 216.473 C 257.233 217.203,256.852 218.070,256.543 218.400 C 255.212 219.823,253.600 222.153,253.600 222.655 C 253.600 222.955,253.435 223.200,253.234 223.200 C 253.032 223.200,251.997 224.015,250.934 225.011 C 249.870 226.008,248.590 226.928,248.089 227.057 C 247.589 227.186,246.997 227.631,246.775 228.046 C 246.548 228.472,245.942 228.800,245.386 228.800 C 244.844 228.800,244.060 229.140,243.644 229.556 C 243.202 229.998,241.995 230.433,240.744 230.601 C 239.565 230.759,237.993 231.139,237.251 231.444 C 236.169 231.890,232.353 232.000,217.925 232.000 C 206.297 232.000,199.674 232.146,199.174 232.414 C 198.144 232.965,197.951 257.129,198.970 257.975 C 199.968 258.803,238.979 258.391,240.871 257.532 C 241.681 257.165,243.391 256.739,244.671 256.586 C 245.952 256.433,247.561 255.969,248.247 255.554 C 248.933 255.139,249.870 254.800,250.328 254.800 C 251.360 254.800,253.200 253.990,253.200 253.536 C 253.200 253.351,253.515 253.197,253.900 253.194 C 254.285 253.191,255.050 252.927,255.600 252.608 C 256.150 252.288,257.365 251.668,258.300 251.228 C 259.235 250.788,260.000 250.242,260.000 250.014 C 260.000 249.786,260.245 249.600,260.545 249.600 C 261.031 249.600,261.826 249.064,265.123 246.514 C 266.985 245.073,272.264 239.779,272.516 239.100 C 272.658 238.715,272.943 238.400,273.148 238.400 C 273.353 238.400,273.889 237.815,274.340 237.100 C 274.790 236.385,275.795 234.900,276.573 233.800 C 277.351 232.700,277.991 231.603,277.994 231.362 C 277.997 231.121,278.360 230.598,278.800 230.200 C 279.240 229.802,279.600 229.243,279.600 228.959 C 279.600 228.675,280.050 227.596,280.600 226.562 C 281.150 225.527,281.600 224.317,281.600 223.872 C 281.600 223.427,281.883 222.750,282.230 222.367 C 282.576 221.985,283.002 220.710,283.177 219.536 C 283.351 218.361,283.828 216.680,284.236 215.800 C 284.895 214.379,284.978 213.103,284.978 204.400 C 284.978 195.697,284.895 194.421,284.236 193.000 C 283.828 192.120,283.351 190.439,283.177 189.264 C 283.002 188.090,282.599 186.830,282.280 186.464 C 281.962 186.099,281.584 185.143,281.440 184.340 C 281.296 183.537,280.918 182.664,280.600 182.400 C 280.282 182.136,279.909 181.319,279.771 180.586 C 279.633 179.852,279.179 178.943,278.760 178.564 C 278.342 178.186,278.000 177.648,278.000 177.369 C 278.000 177.090,277.595 176.351,277.100 175.728 C 276.605 175.104,275.971 174.235,275.691 173.797 C 275.411 173.359,274.808 172.415,274.351 171.700 C 273.895 170.985,273.354 170.400,273.151 170.400 C 272.947 170.400,272.609 169.950,272.400 169.400 C 272.191 168.850,271.745 168.400,271.410 168.400 C 271.074 168.400,270.800 168.214,270.800 167.987 C 270.800 167.464,268.158 164.800,267.640 164.800 C 267.428 164.800,267.140 164.440,267.000 164.000 C 266.860 163.560,266.497 163.200,266.193 163.200 C 265.889 163.200,265.495 162.942,265.319 162.627 C 264.907 161.891,262.572 160.206,260.900 159.438 C 260.185 159.109,259.600 158.660,259.600 158.439 C 259.600 158.217,258.982 157.920,258.228 157.779 C 257.473 157.637,256.766 157.287,256.656 157.001 C 256.546 156.715,255.768 156.260,254.928 155.990 C 254.088 155.720,253.107 155.244,252.750 154.932 C 252.392 154.621,251.403 154.253,250.553 154.115 C 249.703 153.977,248.775 153.632,248.491 153.348 C 248.207 153.064,247.305 152.730,246.487 152.606 C 244.853 152.358,242.172 151.774,240.000 151.193 C 239.230 150.988,235.849 150.815,232.487 150.810 C 227.019 150.801,226.352 150.726,226.162 150.100 C 226.045 149.715,225.695 148.860,225.384 148.200 C 225.073 147.540,224.656 146.243,224.456 145.318 C 224.256 144.393,223.802 143.345,223.447 142.989 C 223.091 142.634,222.800 141.930,222.800 141.425 C 222.800 140.921,222.466 140.079,222.058 139.554 C 221.650 139.029,221.101 137.939,220.838 137.132 C 220.574 136.325,220.098 135.448,219.780 135.183 C 219.461 134.918,219.200 134.461,219.200 134.167 C 219.200 133.872,218.855 133.309,218.432 132.916 C 218.010 132.522,217.537 131.690,217.381 131.068 C 217.225 130.445,216.863 129.845,216.576 129.736 C 216.290 129.626,215.873 129.010,215.649 128.368 C 215.425 127.726,214.962 127.200,214.621 127.200 C 214.279 127.200,214.000 126.959,214.000 126.664 C 214.000 124.974,202.730 113.484,199.259 111.636 C 198.677 111.326,198.020 110.867,197.800 110.615 C 197.185 109.912,194.303 108.111,193.337 107.825 C 192.862 107.684,192.379 107.323,192.264 107.022 C 192.149 106.722,191.457 106.344,190.727 106.184 C 189.997 106.024,189.179 105.578,188.910 105.193 C 188.640 104.808,187.803 104.377,187.050 104.236 C 186.297 104.094,185.476 103.732,185.226 103.431 C 184.976 103.130,184.103 102.760,183.286 102.608 C 182.469 102.456,181.508 102.070,181.151 101.750 C 180.794 101.430,179.624 101.020,178.551 100.838 C 177.478 100.657,176.077 100.226,175.438 99.880 C 174.798 99.533,173.096 99.124,171.653 98.970 C 170.211 98.815,168.394 98.412,167.616 98.073 C 165.990 97.366,149.445 96.997,145.693 97.585 M163.725 98.762 C 164.344 99.003,166.414 99.315,168.325 99.456 C 170.317 99.603,172.397 100.007,173.200 100.404 C 173.970 100.784,175.500 101.224,176.600 101.383 C 177.700 101.541,179.161 102.014,179.847 102.435 C 180.533 102.856,181.398 103.200,181.768 103.200 C 182.138 103.200,183.107 103.553,183.921 103.985 C 184.734 104.417,186.750 105.411,188.400 106.194 C 191.627 107.726,192.310 108.109,194.273 109.499 C 194.974 109.995,195.668 110.400,195.816 110.400 C 196.072 110.400,197.915 111.787,199.200 112.945 C 199.530 113.243,200.880 114.303,202.200 115.301 C 206.418 118.490,213.835 126.851,215.878 130.721 C 216.423 131.754,217.193 132.960,217.589 133.400 C 217.984 133.840,218.441 134.650,218.604 135.200 C 218.766 135.750,219.237 136.522,219.650 136.916 C 220.062 137.309,220.400 138.001,220.400 138.452 C 220.400 138.904,220.760 139.731,221.200 140.291 C 221.640 140.850,222.006 141.599,222.013 141.954 C 222.019 142.309,222.468 143.500,223.009 144.600 C 223.550 145.700,223.994 147.017,223.996 147.526 C 224.009 150.615,225.948 152.056,229.675 151.746 C 232.590 151.502,235.844 151.834,243.800 153.184 C 247.620 153.832,253.515 156.289,259.631 159.783 C 263.476 161.980,269.922 167.637,272.213 170.825 C 272.866 171.733,273.850 173.045,274.400 173.740 C 275.683 175.360,276.280 176.305,276.985 177.832 C 277.298 178.509,277.815 179.281,278.135 179.546 C 278.455 179.811,278.830 180.634,278.969 181.374 C 279.108 182.114,279.482 182.936,279.800 183.200 C 280.118 183.464,280.494 184.337,280.634 185.140 C 280.774 185.943,281.208 187.161,281.599 187.847 C 281.990 188.533,282.437 190.063,282.592 191.247 C 282.746 192.431,283.216 194.739,283.636 196.375 C 284.190 198.534,284.400 200.736,284.400 204.400 C 284.400 208.064,284.190 210.266,283.636 212.425 C 283.216 214.061,282.749 216.390,282.598 217.600 C 282.447 218.810,282.086 220.176,281.795 220.636 C 281.503 221.096,281.054 222.266,280.795 223.236 C 280.537 224.206,280.096 225.270,279.817 225.600 C 279.537 225.930,279.185 226.713,279.036 227.340 C 278.887 227.967,278.413 229.002,277.982 229.640 C 277.552 230.278,276.840 231.333,276.400 231.984 C 275.960 232.635,275.600 233.264,275.600 233.382 C 275.600 233.767,270.741 239.964,269.171 241.582 C 266.676 244.153,260.216 249.013,257.600 250.287 C 256.830 250.662,255.930 251.178,255.600 251.434 C 255.270 251.690,254.280 252.129,253.400 252.410 C 252.520 252.691,251.440 253.146,251.000 253.421 C 250.560 253.696,249.570 254.053,248.800 254.214 C 248.030 254.375,246.773 254.843,246.006 255.253 C 245.230 255.669,243.804 256.000,242.790 256.000 C 241.788 256.000,239.895 256.305,238.584 256.677 C 236.507 257.266,233.830 257.356,217.800 257.377 L 199.400 257.400 199.294 245.648 C 199.219 237.311,199.320 233.737,199.643 233.348 C 200.017 232.898,203.469 232.800,218.949 232.800 C 237.161 232.800,237.888 232.771,240.400 231.941 C 243.634 230.872,244.163 230.643,246.400 229.347 C 247.390 228.774,248.614 228.077,249.121 227.799 C 252.154 226.134,259.600 216.481,259.600 214.215 C 259.600 213.893,259.960 212.716,260.400 211.600 C 261.413 209.031,261.571 199.878,260.634 198.066 C 260.323 197.465,259.946 196.259,259.797 195.386 C 259.647 194.514,259.182 193.312,258.763 192.716 C 258.343 192.120,258.000 191.509,258.000 191.358 C 258.000 189.339,248.501 179.600,246.532 179.600 C 246.299 179.600,245.653 179.242,245.097 178.805 C 244.541 178.368,243.139 177.807,241.981 177.559 C 240.822 177.310,239.279 176.858,238.550 176.553 C 236.974 175.895,229.534 175.793,228.374 176.414 C 227.807 176.717,227.600 177.256,227.600 178.424 C 227.600 179.302,227.253 181.008,226.828 182.217 C 226.403 183.425,225.932 185.445,225.780 186.707 C 225.628 187.968,225.165 189.755,224.752 190.678 C 224.338 191.601,224.000 192.892,224.000 193.547 C 224.000 194.245,223.571 195.248,222.964 195.969 L 221.929 197.200 208.988 197.200 C 195.227 197.200,195.006 197.167,196.236 195.288 C 197.414 193.491,199.200 189.950,199.200 189.413 C 199.200 189.135,199.531 188.479,199.936 187.954 C 200.341 187.429,200.866 186.100,201.102 185.000 C 201.338 183.900,201.800 182.280,202.128 181.400 C 203.498 177.727,203.298 160.896,201.851 158.099 C 201.531 157.479,201.138 156.259,200.979 155.386 C 200.819 154.514,200.368 153.170,199.976 152.400 C 199.584 151.630,198.682 149.784,197.971 148.299 C 197.261 146.813,196.436 145.396,196.140 145.150 C 195.843 144.904,195.600 144.532,195.600 144.324 C 195.600 143.227,189.857 136.822,185.004 132.507 C 183.724 131.369,181.038 129.615,180.562 129.607 C 180.321 129.603,179.813 129.256,179.433 128.836 C 179.052 128.416,178.274 127.955,177.702 127.811 C 177.131 127.668,176.220 127.202,175.678 126.775 C 175.136 126.349,174.446 126.000,174.145 126.000 C 173.843 126.000,172.925 125.640,172.104 125.200 C 171.284 124.760,170.047 124.400,169.357 124.400 C 168.666 124.400,167.224 123.997,166.151 123.504 C 163.179 122.139,147.995 122.142,145.122 123.507 C 144.089 123.998,142.649 124.401,141.922 124.403 C 141.195 124.404,140.060 124.763,139.400 125.200 C 138.740 125.637,137.930 126.002,137.600 126.010 C 136.956 126.026,133.368 127.748,131.400 128.985 C 126.764 131.899,125.357 133.017,121.800 136.616 C 119.600 138.841,117.305 141.413,116.700 142.331 C 113.579 147.067,112.000 149.778,112.000 150.403 C 112.000 150.683,111.657 151.652,111.237 152.556 C 110.299 154.580,108.800 159.361,108.800 160.333 C 108.800 161.015,110.080 162.181,112.485 163.690 C 113.090 164.069,114.804 165.640,116.293 167.180 C 118.991 169.973,119.329 170.370,121.572 173.400 C 122.224 174.280,123.118 175.468,123.559 176.039 C 124.582 177.366,123.928 178.485,121.453 179.640 C 120.544 180.064,119.080 180.850,118.200 181.385 C 117.320 181.921,116.150 182.560,115.600 182.806 C 115.050 183.052,114.240 183.581,113.800 183.981 C 113.360 184.381,112.550 184.843,112.000 185.008 C 111.450 185.173,110.910 185.429,110.800 185.577 C 110.690 185.726,109.340 186.542,107.800 187.390 C 106.260 188.239,104.940 189.083,104.867 189.267 C 104.439 190.335,102.887 189.219,100.600 186.199 C 100.160 185.618,98.693 184.211,97.340 183.071 C 93.918 180.191,93.107 179.600,92.573 179.600 C 92.317 179.600,91.664 179.251,91.122 178.825 C 90.580 178.398,89.611 177.929,88.968 177.782 C 88.326 177.635,86.780 177.156,85.534 176.716 C 82.603 175.683,73.781 175.817,71.800 176.924 C 71.140 177.293,70.224 177.596,69.764 177.598 C 68.754 177.601,64.274 179.788,63.590 180.612 C 63.322 180.935,62.899 181.203,62.651 181.206 C 61.089 181.225,54.252 189.237,53.398 192.048 C 53.239 192.571,52.769 193.561,52.354 194.247 C 51.939 194.933,51.600 196.026,51.600 196.675 C 51.600 197.324,51.313 198.823,50.961 200.006 C 49.969 203.348,50.952 212.568,52.542 214.839 C 52.904 215.355,53.200 216.033,53.200 216.344 C 53.200 218.386,59.762 226.106,62.700 227.522 C 63.415 227.866,64.000 228.281,64.000 228.443 C 64.000 228.856,68.778 231.200,69.620 231.200 C 70.001 231.200,71.097 231.556,72.056 231.991 C 73.713 232.743,74.734 232.783,92.420 232.791 C 106.359 232.798,111.161 232.921,111.520 233.280 C 112.083 233.843,112.210 255.849,111.656 256.723 C 111.254 257.356,73.863 257.432,72.208 256.803 C 71.664 256.596,69.777 256.247,68.014 256.025 C 66.250 255.804,64.401 255.361,63.904 255.041 C 63.407 254.721,62.280 254.334,61.400 254.181 C 60.520 254.028,59.239 253.565,58.553 253.151 C 57.867 252.738,56.950 252.400,56.515 252.400 C 56.080 252.400,55.402 252.045,55.009 251.610 C 54.616 251.176,53.917 250.701,53.455 250.554 C 52.993 250.407,52.162 249.981,51.608 249.606 C 51.053 249.232,49.790 248.408,48.800 247.775 C 43.882 244.634,37.053 237.329,33.741 231.668 C 32.325 229.248,30.473 225.467,30.180 224.400 C 30.029 223.850,29.651 223.110,29.341 222.755 C 29.030 222.401,28.615 221.123,28.419 219.916 C 28.223 218.710,27.748 217.020,27.364 216.161 C 26.202 213.561,26.332 195.419,27.534 192.485 C 28.010 191.322,28.400 189.817,28.400 189.140 C 28.400 188.463,28.736 187.254,29.148 186.454 C 29.559 185.655,30.829 183.089,31.971 180.753 C 33.113 178.416,34.308 176.166,34.628 175.753 C 34.948 175.339,35.763 174.146,36.440 173.103 C 37.965 170.754,46.604 162.000,47.399 162.000 C 47.556 162.000,48.219 161.550,48.873 161.000 C 49.527 160.450,50.290 160.000,50.569 160.000 C 50.848 160.000,51.402 159.640,51.800 159.200 C 52.198 158.760,52.731 158.400,52.984 158.400 C 53.237 158.400,54.055 157.950,54.800 157.400 C 55.545 156.850,56.481 156.400,56.879 156.400 C 57.277 156.400,58.275 156.040,59.096 155.600 C 59.916 155.160,60.951 154.796,61.394 154.791 C 61.837 154.786,62.973 154.431,63.918 154.003 C 64.863 153.574,66.573 153.114,67.718 152.982 C 68.863 152.849,71.240 152.461,73.000 152.119 C 75.264 151.680,77.444 151.563,80.454 151.719 C 85.497 151.980,86.469 151.411,87.175 147.784 C 87.387 146.693,87.930 145.087,88.380 144.215 C 88.831 143.344,89.200 142.382,89.200 142.079 C 89.200 141.775,89.560 141.069,90.000 140.509 C 90.440 139.950,90.800 139.181,90.800 138.800 C 90.800 138.419,91.122 137.679,91.516 137.154 C 91.910 136.629,92.449 135.698,92.714 135.085 C 92.979 134.472,93.380 133.752,93.604 133.485 C 94.408 132.528,95.925 130.068,96.159 129.341 C 96.290 128.934,97.015 127.930,97.769 127.111 C 98.523 126.291,99.378 125.283,99.670 124.870 C 101.184 122.724,104.983 118.810,108.000 116.288 C 109.870 114.724,111.580 113.255,111.800 113.023 C 112.020 112.790,112.920 112.134,113.800 111.564 C 114.680 110.994,115.925 110.184,116.567 109.764 C 118.678 108.381,122.974 105.978,124.400 105.383 C 125.170 105.061,126.466 104.438,127.279 103.999 C 128.093 103.560,129.045 103.200,129.395 103.200 C 129.745 103.200,130.728 102.845,131.579 102.411 C 132.430 101.976,133.908 101.499,134.863 101.350 C 135.818 101.201,137.227 100.746,137.994 100.339 C 138.761 99.933,140.201 99.599,141.194 99.598 C 142.187 99.596,144.080 99.396,145.400 99.153 C 146.720 98.910,148.610 98.563,149.600 98.381 C 152.021 97.938,162.317 98.215,163.725 98.762 M149.122 223.655 C 148.403 223.920,147.888 224.526,147.574 225.480 C 147.314 226.266,146.674 227.539,146.151 228.310 C 145.628 229.081,145.200 229.934,145.200 230.207 C 145.200 230.479,144.942 230.917,144.626 231.179 C 144.310 231.441,143.938 232.170,143.800 232.800 C 143.662 233.430,143.308 234.145,143.014 234.389 C 142.719 234.633,142.357 235.320,142.210 235.916 C 142.062 236.512,141.618 237.360,141.223 237.800 C 140.828 238.240,140.380 239.126,140.228 239.768 C 140.075 240.411,139.602 241.380,139.175 241.922 C 138.749 242.464,138.400 243.216,138.400 243.592 C 138.400 243.968,138.040 244.602,137.600 245.000 C 137.160 245.398,136.800 246.032,136.800 246.408 C 136.800 246.784,136.466 247.521,136.058 248.046 C 135.650 248.571,135.101 249.661,134.838 250.468 C 134.574 251.275,134.098 252.152,133.780 252.417 C 133.461 252.682,133.200 253.212,133.200 253.595 C 133.200 253.978,132.866 254.721,132.458 255.246 C 132.050 255.771,131.501 256.861,131.238 257.668 C 130.974 258.475,130.498 259.352,130.180 259.617 C 129.861 259.882,129.600 260.412,129.600 260.795 C 129.600 261.178,129.251 261.936,128.825 262.478 C 128.398 263.020,127.928 263.946,127.780 264.535 C 127.632 265.125,127.374 265.692,127.207 265.796 C 127.039 265.900,124.528 270.713,121.626 276.492 C 118.724 282.271,116.181 287.270,115.975 287.600 C 115.768 287.930,115.417 288.650,115.193 289.200 C 114.969 289.750,114.272 291.142,113.644 292.293 C 111.871 295.543,110.843 295.371,133.361 295.600 L 153.000 295.800 152.907 297.345 C 152.855 298.195,152.524 299.455,152.169 300.145 C 151.815 300.835,151.199 302.300,150.800 303.400 C 149.070 308.171,148.712 309.088,147.977 310.626 C 147.550 311.521,147.200 312.624,147.200 313.077 C 147.200 313.531,146.950 314.110,146.644 314.363 C 146.339 314.617,145.879 315.657,145.623 316.675 C 145.366 317.694,144.896 318.898,144.578 319.352 C 144.260 319.806,144.000 320.441,144.000 320.763 C 144.000 321.084,143.650 322.079,143.223 322.974 C 142.436 324.622,141.621 326.735,140.514 330.000 C 140.178 330.990,139.565 332.532,139.152 333.426 C 138.738 334.321,138.400 335.316,138.400 335.637 C 138.400 335.959,138.156 336.577,137.857 337.011 C 137.558 337.445,137.081 338.520,136.796 339.400 C 136.512 340.280,136.054 341.360,135.779 341.800 C 135.504 342.240,135.150 343.215,134.993 343.967 C 134.836 344.718,134.369 345.888,133.955 346.567 C 133.541 347.245,133.197 348.070,133.189 348.400 C 133.181 348.730,132.732 349.900,132.191 351.000 C 131.650 352.100,131.206 353.383,131.204 353.851 C 131.202 354.319,130.935 354.922,130.611 355.191 C 130.286 355.460,129.905 356.337,129.762 357.140 C 129.619 357.943,129.165 359.161,128.751 359.847 C 128.338 360.533,127.998 361.433,127.996 361.847 C 127.994 362.261,127.550 363.500,127.009 364.600 C 126.468 365.700,126.019 366.815,126.013 367.079 C 126.006 367.342,125.550 368.404,125.000 369.438 C 123.843 371.615,123.754 372.670,124.622 373.910 C 125.416 375.044,127.230 374.275,128.204 372.393 C 128.543 371.737,128.978 371.200,129.171 371.200 C 129.364 371.200,129.719 370.705,129.960 370.100 C 130.201 369.495,131.392 367.650,132.606 366.000 C 133.821 364.350,134.992 362.640,135.209 362.200 C 135.426 361.760,136.232 360.590,137.002 359.600 C 137.771 358.610,138.526 357.530,138.679 357.200 C 139.241 355.990,142.995 350.590,143.490 350.280 C 143.770 350.104,144.003 349.744,144.006 349.480 C 144.009 349.216,144.643 348.100,145.415 347.000 C 147.735 343.691,150.574 339.545,151.000 338.843 C 151.220 338.480,151.760 337.646,152.200 336.990 C 152.640 336.334,153.180 335.506,153.400 335.151 C 153.620 334.796,154.700 333.198,155.800 331.600 C 156.900 330.002,157.980 328.405,158.200 328.051 C 158.420 327.696,159.005 326.896,159.500 326.272 C 159.995 325.649,160.400 324.891,160.400 324.589 C 160.400 324.287,160.625 323.896,160.900 323.720 C 161.421 323.386,164.000 319.833,164.000 319.449 C 164.000 319.328,164.545 318.457,165.211 317.514 C 167.987 313.583,170.235 310.240,170.767 309.253 C 171.079 308.674,171.538 308.020,171.788 307.800 C 172.037 307.580,172.700 306.680,173.260 305.800 C 174.490 303.868,176.782 300.394,178.293 298.171 C 178.902 297.276,179.580 296.264,179.800 295.924 C 180.020 295.583,181.055 294.066,182.100 292.552 C 184.247 289.442,184.895 288.476,186.365 286.200 C 186.933 285.320,187.623 284.456,187.899 284.280 C 188.174 284.104,188.400 283.713,188.400 283.411 C 188.400 283.109,188.850 282.327,189.400 281.673 C 189.950 281.019,190.400 280.356,190.400 280.200 C 190.400 280.044,190.850 279.381,191.400 278.727 C 191.950 278.073,192.400 277.289,192.400 276.983 C 192.400 276.678,192.771 276.230,193.224 275.987 C 193.804 275.677,194.011 275.229,193.924 274.473 L 193.800 273.400 174.500 273.296 C 152.348 273.177,153.929 273.532,156.741 269.313 C 157.589 268.041,159.211 265.560,160.347 263.800 C 161.483 262.040,162.587 260.330,162.800 260.000 C 163.014 259.670,163.728 258.590,164.387 257.600 C 165.046 256.610,165.589 255.635,165.593 255.434 C 165.597 255.232,165.880 254.782,166.222 254.434 C 166.564 254.085,167.462 252.810,168.219 251.600 C 168.975 250.390,169.772 249.130,169.991 248.800 C 170.459 248.093,173.795 242.934,176.262 239.100 C 178.290 235.949,181.245 231.286,181.808 230.346 C 182.024 229.987,182.888 228.688,183.730 227.460 C 184.670 226.088,185.209 224.876,185.130 224.314 L 185.000 223.400 167.600 223.329 C 156.910 223.286,149.784 223.412,149.122 223.655 M184.264 224.622 C 184.403 224.984,184.148 225.576,183.656 226.033 C 183.191 226.467,182.698 227.267,182.561 227.811 C 182.425 228.355,182.183 228.800,182.024 228.800 C 181.642 228.800,179.374 232.351,179.022 233.500 C 178.870 233.995,178.609 234.400,178.440 234.400 C 178.272 234.400,177.609 235.255,176.966 236.300 C 175.097 239.340,173.682 241.545,172.795 242.800 C 172.562 243.130,172.152 243.789,171.885 244.265 C 171.618 244.740,170.797 245.991,170.060 247.044 C 169.323 248.097,168.562 249.373,168.370 249.880 C 168.177 250.386,167.847 250.800,167.636 250.800 C 167.425 250.800,167.024 251.430,166.746 252.200 C 166.467 252.970,166.126 253.600,165.987 253.600 C 165.561 253.600,163.200 257.470,163.200 258.168 C 163.200 258.530,162.954 258.920,162.653 259.035 C 162.115 259.241,159.600 262.836,159.600 263.398 C 159.600 263.556,159.150 264.219,158.600 264.873 C 158.050 265.527,157.600 266.290,157.600 266.569 C 157.600 266.848,157.240 267.402,156.800 267.800 C 156.360 268.198,156.000 268.760,156.000 269.048 C 156.000 269.336,155.664 269.752,155.253 269.972 C 154.339 270.461,153.821 272.703,154.448 273.457 C 154.815 273.900,158.408 274.000,174.025 274.000 C 192.925 274.000,194.704 274.122,192.787 275.287 C 192.322 275.569,191.694 276.385,191.392 277.100 C 191.089 277.815,190.652 278.400,190.420 278.400 C 190.189 278.400,190.000 278.655,190.000 278.966 C 190.000 279.277,189.640 279.952,189.201 280.466 C 188.761 280.980,187.474 282.840,186.341 284.600 C 182.622 290.375,182.205 290.998,181.920 291.212 C 181.456 291.560,179.215 294.972,179.207 295.342 C 179.203 295.530,178.795 296.183,178.300 296.792 C 177.146 298.212,175.961 299.857,175.423 300.786 C 175.190 301.188,174.325 302.499,173.500 303.700 C 172.675 304.900,172.000 306.083,172.000 306.327 C 172.000 306.572,171.640 306.965,171.200 307.200 C 170.760 307.435,170.400 307.864,170.400 308.152 C 170.400 308.440,169.950 309.199,169.400 309.838 C 168.851 310.477,168.401 311.154,168.400 311.342 C 168.400 311.530,167.995 312.189,167.500 312.806 C 165.495 315.305,165.116 315.834,164.778 316.600 C 164.584 317.040,163.882 318.120,163.219 319.000 C 162.556 319.880,161.786 321.048,161.507 321.595 C 161.228 322.141,160.685 322.906,160.300 323.295 C 159.915 323.683,159.600 324.261,159.600 324.580 C 159.600 324.899,159.354 325.304,159.054 325.480 C 158.754 325.656,158.209 326.385,157.844 327.100 C 157.478 327.815,157.026 328.400,156.838 328.400 C 156.651 328.400,156.273 328.940,156.000 329.600 C 155.727 330.260,155.367 330.800,155.200 330.800 C 155.033 330.800,154.659 331.385,154.369 332.100 C 154.078 332.815,153.516 333.635,153.120 333.923 C 152.724 334.210,152.400 334.677,152.400 334.961 C 152.400 335.244,152.040 335.802,151.600 336.200 C 151.160 336.598,150.800 337.157,150.800 337.441 C 150.800 337.726,150.350 338.444,149.800 339.038 C 149.250 339.631,148.800 340.361,148.800 340.658 C 148.800 340.956,148.617 341.200,148.394 341.200 C 148.170 341.200,147.675 341.869,147.294 342.688 C 146.912 343.506,146.370 344.451,146.090 344.788 C 145.809 345.124,145.134 345.921,144.590 346.558 C 144.045 347.196,143.600 347.962,143.600 348.262 C 143.600 348.562,143.240 349.116,142.800 349.493 C 142.360 349.870,142.000 350.386,142.000 350.640 C 142.000 350.894,141.725 351.330,141.389 351.609 C 140.659 352.215,138.400 355.505,138.400 355.962 C 138.400 356.138,137.995 356.755,137.500 357.331 C 135.757 359.361,134.800 360.732,134.800 361.200 C 134.800 361.641,134.433 362.180,132.100 365.164 C 131.605 365.797,131.200 366.504,131.200 366.735 C 131.200 366.966,130.885 367.391,130.500 367.681 C 129.781 368.221,128.864 369.649,127.822 371.850 C 127.280 372.996,125.587 373.854,125.009 373.276 C 124.548 372.814,124.844 371.253,125.567 370.333 C 125.989 369.796,126.458 368.698,126.609 367.893 C 126.760 367.088,127.125 366.228,127.420 365.984 C 127.715 365.739,128.159 364.562,128.406 363.369 C 128.654 362.176,129.017 361.200,129.213 361.200 C 129.409 361.200,129.756 360.435,129.985 359.500 C 130.214 358.565,130.761 357.134,131.201 356.321 C 131.640 355.507,132.000 354.395,132.000 353.849 C 132.000 353.304,132.291 352.566,132.647 352.211 C 133.002 351.855,133.463 350.810,133.670 349.888 C 133.877 348.966,134.314 347.916,134.640 347.556 C 134.967 347.195,135.344 346.202,135.478 345.350 C 135.613 344.497,136.055 343.371,136.461 342.846 C 136.868 342.321,137.200 341.491,137.200 341.000 C 137.200 340.509,137.545 339.669,137.967 339.133 C 138.389 338.596,138.861 337.447,139.016 336.579 C 139.171 335.710,139.616 334.460,140.006 333.800 C 140.396 333.140,140.838 331.849,140.988 330.931 C 141.137 330.014,141.494 329.173,141.779 329.063 C 142.065 328.954,142.425 328.193,142.579 327.373 C 142.732 326.554,143.133 325.463,143.470 324.950 C 143.806 324.436,144.248 323.275,144.452 322.369 C 144.655 321.462,145.062 320.481,145.355 320.187 C 145.649 319.894,146.010 318.897,146.158 317.973 C 146.306 317.049,146.781 315.842,147.213 315.292 C 147.646 314.742,148.000 313.789,148.000 313.175 C 148.000 312.560,148.291 311.766,148.647 311.411 C 149.002 311.055,149.463 310.010,149.670 309.088 C 149.877 308.166,150.314 307.116,150.640 306.756 C 150.967 306.395,151.346 305.402,151.483 304.550 C 151.620 303.697,152.045 302.550,152.429 302.000 C 152.812 301.450,153.240 300.325,153.381 299.500 C 153.521 298.675,153.789 298.000,153.975 298.000 C 154.161 298.000,154.431 297.533,154.574 296.962 C 155.128 294.753,155.564 294.800,134.384 294.800 C 111.394 294.800,112.321 294.969,115.208 291.299 C 115.644 290.745,116.000 289.861,116.000 289.334 C 116.000 288.806,116.261 288.275,116.581 288.152 C 116.900 288.030,117.376 287.270,117.639 286.465 C 117.901 285.659,118.450 284.571,118.858 284.046 C 119.266 283.521,119.600 282.784,119.600 282.408 C 119.600 282.032,119.960 281.398,120.400 281.000 C 120.840 280.602,121.200 279.861,121.200 279.354 C 121.200 278.846,121.545 278.109,121.968 277.716 C 122.390 277.322,122.867 276.460,123.029 275.800 C 123.190 275.140,123.655 274.171,124.061 273.646 C 124.467 273.121,124.800 272.363,124.800 271.962 C 124.800 271.560,125.138 270.909,125.550 270.516 C 125.963 270.122,126.438 269.350,126.605 268.800 C 126.773 268.250,127.245 267.371,127.655 266.846 C 128.065 266.321,128.400 265.494,128.400 265.008 C 128.400 264.522,128.744 263.813,129.164 263.433 C 129.584 263.052,130.045 262.274,130.189 261.702 C 130.332 261.131,130.798 260.220,131.225 259.678 C 131.651 259.136,132.000 258.363,132.000 257.962 C 132.000 257.560,132.335 256.909,132.744 256.516 C 133.153 256.122,133.614 255.274,133.768 254.632 C 133.923 253.989,134.398 253.020,134.825 252.478 C 135.251 251.936,135.600 251.184,135.600 250.808 C 135.600 250.432,135.942 249.814,136.360 249.436 C 136.779 249.057,137.233 248.147,137.371 247.412 C 137.509 246.678,137.870 245.982,138.173 245.866 C 138.476 245.749,138.851 245.057,139.005 244.327 C 139.160 243.597,139.608 242.640,140.000 242.200 C 140.392 241.760,140.837 240.815,140.989 240.100 C 141.140 239.385,141.408 238.800,141.584 238.800 C 141.760 238.800,142.584 237.405,143.414 235.700 C 144.244 233.995,145.141 232.330,145.408 232.000 C 145.674 231.670,146.021 230.860,146.179 230.200 C 146.336 229.540,146.810 228.678,147.232 228.284 C 147.655 227.891,148.000 227.250,148.000 226.861 C 148.000 224.567,147.621 224.618,166.267 224.392 C 175.690 224.277,183.541 224.142,183.713 224.092 C 183.884 224.041,184.133 224.280,184.264 224.622 " stroke="none" fill="#9db8cb" fill-rule="evenodd"></path></g></svg>