<?xml version="1.0" standalone="no"?>
<!DOCTYPE svg PUBLIC "-//W3C//DTD SVG 20010904//EN"
 "http://www.w3.org/TR/2001/REC-SVG-20010904/DTD/svg10.dtd">
<svg version="1.0" xmlns="http://www.w3.org/2000/svg"
 width="300.000000pt" height="300.000000pt" viewBox="0 0 300.000000 300.000000"
 preserveAspectRatio="xMidYMid meet">
<metadata>
Created by potrace 1.10, written by Peter Selinger 2001-2011
</metadata>
<g transform="translate(0.000000,300.000000) scale(0.100000,-0.100000)"
fill="#000000" stroke="none">
<path d="M1121 2234 c-131 -35 -266 -142 -328 -259 -160 -305 -5 -672 326
-769 67 -20 198 -21 267 -2 63 17 146 58 193 95 l36 29 59 -55 c54 -50 60 -59
58 -92 -2 -21 5 -46 15 -62 15 -22 293 -272 401 -362 115 -94 287 70 200 191
-33 46 -414 371 -443 378 -14 3 -37 4 -52 1 -22 -4 -38 5 -89 51 l-62 56 24
48 c102 200 60 452 -101 613 -131 131 -330 186 -504 139z m231 -35 c177 -37
327 -179 373 -354 80 -310 -153 -615 -471 -615 -265 0 -484 222 -484 490 0
307 285 541 582 479z m388 -851 l60 -52 -21 -23 -22 -22 -57 51 c-57 50 -58
52 -43 75 8 12 17 23 20 23 2 0 31 -23 63 -52z m192 -85 c127 -102 387 -338
392 -356 12 -45 5 -70 -28 -103 -26 -26 -43 -34 -69 -34 -30 0 -58 21 -238
180 -112 99 -208 189 -213 200 -13 29 2 70 39 107 41 41 71 42 117 6z"/>
<path d="M1182 2139 c-80 -13 -160 -56 -223 -118 -168 -169 -168 -433 0 -602
104 -103 245 -146 384 -115 309 69 437 433 239 682 -92 116 -251 177 -400 153z
m230 -71 c155 -72 247 -245 218 -410 -12 -66 -59 -164 -91 -194 -15 -13 -22
-15 -31 -6 -7 7 -21 12 -33 11 -16 0 -15 -2 8 -11 15 -5 27 -13 27 -17 0 -16
-38 -41 -53 -35 -17 6 -51 -19 -40 -30 4 -3 1 -6 -5 -6 -33 0 16 103 55 119
l28 11 -27 -5 c-36 -7 -35 4 2 40 33 31 33 50 0 20 -30 -27 -24 -10 11 30 17
19 26 35 21 35 -6 0 -19 -11 -29 -25 -60 -86 -71 -87 -42 -6 10 30 29 65 41
78 12 13 17 23 10 23 -13 0 -47 -42 -64 -81 -14 -32 -26 -37 -34 -14 -4 9 -15
20 -25 26 -17 9 -17 7 2 -26 12 -19 25 -32 31 -29 6 4 8 -2 4 -15 -3 -11 -9
-31 -13 -43 -3 -13 -6 -45 -5 -73 0 -27 -4 -57 -10 -65 -6 -10 -8 0 -5 34 3
30 1 43 -4 35 -5 -8 -9 -9 -10 -4 0 6 -2 21 -4 35 -2 14 -6 48 -9 75 -3 28 -8
59 -11 71 -3 13 3 28 14 38 16 15 19 15 33 -1 8 -10 18 -25 21 -33 4 -11 6
-10 6 4 1 11 11 31 24 44 l22 24 -26 -12 c-19 -9 -32 -9 -45 -2 -14 8 -21 6
-30 -6 -7 -10 -16 -14 -20 -10 -4 5 1 17 11 28 17 19 19 19 37 3 10 -9 19 -14
21 -12 1 2 11 14 22 27 19 23 19 23 -1 17 -13 -4 -11 -2 5 8 17 10 20 16 10
19 -10 4 -7 13 15 37 17 17 25 31 20 31 -6 0 -23 -13 -39 -30 -27 -28 -30 -29
-47 -13 -18 16 -26 6 -9 -12 10 -12 24 -65 16 -65 -3 0 -12 15 -20 33 -9 19
-12 22 -9 8 5 -17 3 -21 -6 -16 -8 5 -11 4 -7 -2 4 -6 0 -16 -7 -22 -12 -10
-16 -3 -21 43 -13 99 22 215 77 261 18 15 24 25 15 25 -18 0 -70 -58 -93 -103
-9 -17 -23 -40 -32 -49 -8 -10 -10 -18 -4 -18 5 0 8 -9 5 -20 -6 -22 -18 -26
-28 -10 -3 6 -11 10 -16 10 -6 0 -1 -14 11 -30 18 -25 25 -28 36 -19 11 9 14
8 14 -4 0 -25 -26 -40 -49 -28 -30 17 -36 13 -16 -9 11 -12 27 -18 41 -16 19
4 23 0 26 -36 3 -35 0 -41 -24 -54 -15 -8 -29 -14 -31 -14 -11 0 -14 56 -5 73
8 17 7 18 -14 12 -28 -9 -38 -23 -31 -44 5 -13 3 -14 -7 -4 -10 9 -11 18 -3
35 13 30 33 112 27 117 -2 2 -16 -23 -31 -56 -17 -36 -33 -58 -40 -56 -33 12
-33 -7 0 -21 27 -12 37 -22 37 -39 0 -12 4 -17 8 -12 26 36 51 -11 31 -60 -7
-17 -11 -42 -10 -57 2 -21 -2 -27 -18 -25 -11 0 -17 5 -14 10 2 4 0 13 -5 20
-6 7 -14 28 -20 47 -5 19 -13 43 -17 54 -7 16 -6 17 13 7 18 -10 22 -9 22 4 0
8 -9 15 -20 15 -13 0 -31 19 -54 55 -32 49 -113 122 -124 111 -2 -3 12 -19 32
-37 49 -42 79 -86 81 -118 1 -14 6 -39 10 -56 l8 -30 -24 21 c-29 26 -63 44
-81 44 -7 -1 5 -10 27 -21 42 -21 95 -67 95 -82 0 -6 7 -15 16 -21 10 -8 17
-32 20 -68 2 -31 5 -63 6 -70 2 -8 -7 -13 -23 -14 -23 -1 -25 2 -20 30 l4 31
13 -30 13 -30 -3 38 c-2 20 -11 46 -20 55 -9 10 -16 24 -16 30 0 37 -122 133
-167 132 -10 -1 0 -10 23 -21 40 -20 144 -116 112 -103 -11 3 -18 1 -18 -5 0
-6 6 -11 14 -11 20 0 28 -15 32 -59 2 -20 1 -30 -2 -23 -7 14 -44 16 -44 2 0
-6 -11 -3 -25 6 -14 9 -22 20 -19 25 8 13 64 11 64 -3 0 -6 3 -9 6 -5 3 3 3
15 -1 28 -4 12 -10 17 -14 11 -3 -6 -24 -12 -45 -14 -37 -3 -42 0 -76 45 -53
69 -75 137 -74 232 0 69 5 91 31 147 49 105 124 175 231 215 61 22 205 13 274
-19z m-296 -460 c28 -86 28 -85 15 -68 -6 8 -16 32 -22 53 -5 21 -13 45 -16
53 -3 8 -3 14 0 14 3 0 13 -24 23 -52z m189 15 c-4 -10 -10 -26 -12 -35 -3
-10 -9 -16 -13 -13 -5 3 -6 -5 -3 -16 6 -20 7 -19 18 7 11 26 12 27 18 9 7
-23 10 -101 6 -165 -2 -39 -3 -35 -9 25 l-6 70 -2 -57 c-2 -71 -16 -108 -39
-107 -16 1 -16 2 1 6 16 4 18 13 12 102 -3 54 -10 110 -16 126 -9 22 -7 31 6
46 22 25 49 25 39 2z m-46 -138 c1 -17 -1 -17 -9 -5 -7 12 -10 8 -10 -14 0
-16 -3 -27 -6 -23 -4 3 -3 28 1 54 6 38 9 44 16 28 4 -11 8 -29 8 -40z m-61
-50 c0 -25 -4 -47 -9 -51 -10 -6 -12 56 -3 80 9 24 11 20 12 -29z m150 -40 c0
-19 -4 -35 -9 -35 -5 0 -9 18 -9 41 0 22 4 38 9 35 5 -3 9 -22 9 -41z"/>
<path d="M1236 2053 c3 -21 13 -44 22 -52 16 -13 16 -13 -2 -7 -14 5 -17 2
-12 -10 3 -8 6 -18 6 -20 0 -13 28 -1 33 14 2 9 8 25 12 35 6 14 4 16 -11 11
-11 -4 -16 -4 -12 1 8 9 -22 65 -34 65 -4 0 -5 -17 -2 -37z"/>
<path d="M1225 1953 c29 -43 32 -58 10 -49 -13 4 -13 2 -5 -14 18 -35 30 -32
50 12 20 45 28 91 8 51 -15 -30 -22 -29 -48 7 -31 44 -45 37 -15 -7z"/>
<path d="M1020 1959 c0 -10 34 -62 57 -86 6 -7 18 -13 25 -13 10 0 9 -3 -2
-10 -8 -5 -26 -7 -40 -4 -19 4 -17 0 12 -15 46 -26 56 -41 27 -41 -31 0 -12
-18 21 -20 41 -3 45 -1 63 30 22 36 6 41 -17 5 -23 -35 -40 -31 -21 5 17 34
19 50 5 50 -5 0 -10 -6 -10 -14 0 -21 -17 -29 -37 -16 -17 10 -16 10 2 8 17
-3 20 2 17 32 -1 19 -7 39 -13 45 -7 7 -8 4 -3 -9 5 -13 4 -17 -4 -12 -7 4
-12 13 -12 21 0 7 -16 22 -35 34 -19 11 -35 16 -35 10z"/>
<path d="M1431 1926 c-12 -18 -21 -42 -22 -52 0 -18 -1 -18 -10 1 -7 14 -8 4
-4 -35 4 -46 3 -51 -6 -30 -6 14 -13 20 -16 13 -2 -7 1 -21 7 -33 l11 -21 20
25 c21 26 25 41 9 31 -16 -10 -11 7 5 19 19 14 47 103 35 111 -4 3 -18 -10
-29 -29z"/>
<path d="M1260 1683 c0 -34 1 -35 14 -18 10 14 11 25 5 37 -14 27 -19 22 -19
-19z"/>
<path d="M1186 1596 c-18 -44 -20 -66 -6 -66 6 0 10 9 10 19 0 11 7 27 16 35
11 11 12 21 6 33 -9 14 -12 11 -26 -21z"/>
</g>
</svg>
