<?xml version="1.0" standalone="no"?>
<!DOCTYPE svg PUBLIC "-//W3C//DTD SVG 20010904//EN"
 "http://www.w3.org/TR/2001/REC-SVG-20010904/DTD/svg10.dtd">
<svg version="1.0" xmlns="http://www.w3.org/2000/svg"
 width="300.000000pt" height="300.000000pt" viewBox="0 0 300.000000 300.000000"
 preserveAspectRatio="xMidYMid meet">
<metadata>
Created by potrace 1.10, written by Peter Selinger 2001-2011
</metadata>
<g transform="translate(0.000000,300.000000) scale(0.100000,-0.100000)"
fill="#000000" stroke="none">
<path d="M1368 2430 c-210 -33 -394 -126 -538 -270 -116 -115 -209 -276 -251
-435 -33 -122 -31 -325 4 -457 95 -358 395 -630 761 -688 103 -17 289 -8 391
19 241 64 468 247 584 471 314 607 -109 1336 -794 1365 -55 2 -126 0 -157 -5z
m277 -45 c504 -88 833 -585 719 -1086 -91 -400 -455 -690 -864 -690 -270 0
-483 91 -666 284 -251 264 -313 650 -159 985 48 103 109 185 207 278 208 195
482 278 763 229z"/>
<path d="M1335 2355 c-325 -60 -595 -307 -686 -628 -31 -107 -34 -334 -5 -437
88 -320 337 -559 664 -636 90 -22 276 -21 367 0 323 77 555 295 651 613 24 78
27 105 27 233 0 129 -2 155 -26 233 -62 202 -186 374 -350 486 -183 125 -426
176 -642 136z m415 -44 c276 -93 482 -308 562 -587 33 -114 33 -334 0 -447
-48 -166 -158 -334 -284 -434 -470 -374 -1158 -172 -1349 397 -28 83 -33 112
-37 230 -3 113 -1 149 17 222 64 269 259 496 515 598 123 49 185 60 341 56
127 -3 149 -6 235 -35z"/>
<path d="M1396 2004 c-9 -24 -7 -90 4 -119 5 -14 26 -35 45 -47 l36 -21 -2
-73 c-1 -41 1 -77 4 -81 4 -3 7 12 7 35 0 22 4 42 9 44 5 2 6 21 2 45 -5 23
-4 48 0 55 5 7 9 31 9 52 0 34 -6 45 -47 83 -53 48 -58 50 -67 27z m90 -76
c16 -31 18 -64 5 -72 -10 -6 -26 40 -22 63 2 12 0 13 -13 2 -8 -7 -21 -10 -28
-6 -7 4 -3 -2 10 -12 24 -20 40 -68 19 -60 -7 3 -11 10 -9 16 1 7 -2 10 -7 6
-23 -14 -50 79 -35 119 5 13 10 12 36 -7 16 -12 36 -34 44 -49z"/>
<path d="M1655 1975 c-52 -18 -113 -86 -121 -133 -3 -21 -8 -44 -11 -52 -20
-48 -19 -345 0 -370 11 -13 10 -13 -6 -1 -24 19 -32 7 -32 -49 0 -36 -3 -44
-9 -32 -6 9 -9 32 -7 50 2 31 -11 43 -24 22 -3 -5 -10 -10 -16 -10 -5 0 5 13
23 29 31 28 33 33 36 110 3 63 0 87 -12 106 -9 14 -14 30 -11 35 3 4 -4 34
-16 64 -39 104 -136 151 -263 126 -34 -7 -64 -14 -69 -17 -4 -2 5 -17 20 -32
16 -15 47 -51 71 -79 64 -77 115 -97 204 -79 34 7 38 6 53 -23 11 -20 15 -50
13 -88 l-3 -57 -60 -10 c-33 -5 -71 -18 -85 -27 -13 -10 -34 -18 -46 -18 -12
0 -33 -9 -47 -20 -14 -11 -34 -20 -44 -20 -11 0 -29 -9 -40 -19 -11 -11 -39
-25 -62 -32 -37 -11 -43 -10 -62 7 -35 31 -67 87 -85 150 -20 69 -15 202 10
274 8 24 14 46 12 48 -2 2 -27 -6 -55 -18 -45 -20 -52 -27 -65 -69 -28 -84
-39 -182 -33 -285 7 -128 25 -197 84 -316 38 -79 60 -109 132 -181 73 -73 101
-93 181 -132 118 -56 180 -71 295 -71 103 0 173 15 262 54 121 55 215 137 288
250 93 143 125 261 125 458 0 125 -10 168 -25 102 -9 -41 -74 -139 -119 -178
-57 -49 -116 -84 -135 -79 -49 16 -91 34 -105 46 -9 7 -23 10 -32 7 -10 -4
-25 3 -40 19 -13 14 -34 25 -47 25 -14 0 -44 7 -67 15 -23 8 -53 15 -65 15
-21 0 -22 5 -29 100 -5 76 -3 109 8 134 14 33 16 34 59 29 98 -11 161 23 214
116 14 25 39 60 55 77 l29 31 -32 7 c-53 10 -152 6 -194 -9z m163 -1 l30 -6
-31 -43 c-18 -24 -41 -58 -52 -76 -39 -64 -115 -96 -187 -80 -24 6 -41 5 -49
-3 -11 -9 -11 -8 0 6 7 9 14 30 16 47 14 111 139 182 273 155z m-471 -133 c44
-20 99 -89 90 -113 -2 -7 3 -22 12 -33 15 -18 15 -19 -1 -7 -12 10 -17 10 -20
1 -2 -6 -26 -13 -53 -16 -67 -6 -106 17 -176 103 l-57 69 27 6 c55 13 136 9
178 -10z m-404 -51 c-3 -11 -9 -18 -13 -15 -11 7 -37 -66 -50 -139 -24 -142
-4 -277 62 -416 54 -113 163 -225 253 -260 82 -32 252 -33 370 -1 94 25 240
95 309 148 40 32 49 44 51 73 1 19 12 55 25 80 16 31 18 41 7 32 -16 -13 -40
-73 -51 -123 -4 -18 -22 -37 -53 -57 -64 -41 -153 -85 -159 -79 -9 8 44 104
77 142 17 19 26 35 20 35 -16 0 -87 -98 -109 -151 -16 -37 -28 -49 -54 -58
-32 -11 -180 -41 -199 -41 -18 0 24 65 80 124 31 32 47 54 36 48 -30 -15 -110
-103 -130 -142 l-17 -33 -76 7 c-42 3 -81 11 -86 16 -7 7 -3 10 12 10 14 0 54
30 106 78 105 98 165 129 341 182 77 23 175 60 218 82 94 49 180 130 223 212
l31 58 -2 -108 c-4 -171 -41 -300 -124 -426 -165 -252 -464 -357 -744 -260
-204 70 -353 222 -431 439 -30 85 -31 93 -31 253 1 201 17 263 75 292 19 10
36 18 37 18 0 0 -1 -9 -4 -20z m-24 -109 c-17 -120 10 -228 78 -318 36 -48
118 -98 220 -137 104 -40 173 -73 173 -84 0 -11 -101 -108 -127 -121 -40 -20
-97 -13 -140 18 -86 63 -157 167 -200 296 -22 68 -26 98 -27 200 -1 102 17
235 30 223 1 -2 -2 -37 -7 -77z m551 -210 c0 -5 -14 -21 -31 -35 -26 -22 -41
-26 -97 -27 -38 0 -59 -3 -49 -8 17 -6 17 -8 -5 -18 -13 -7 -32 -14 -43 -16
-17 -4 -17 -5 3 -6 13 0 37 6 54 15 17 9 39 14 49 11 11 -3 22 -1 25 4 3 5 13
9 22 8 12 0 9 -3 -7 -10 -13 -5 -21 -12 -19 -15 3 -3 23 2 43 10 47 20 45 20
45 -4 0 -10 -20 -42 -45 -70 -25 -28 -45 -58 -45 -68 1 -12 5 -9 16 11 16 30
28 36 20 10 -3 -10 -1 -25 4 -33 7 -11 10 -6 10 21 0 25 7 43 24 59 l25 23 7
-28 c5 -19 1 -37 -11 -57 -9 -16 -14 -32 -11 -35 3 -4 6 0 6 8 0 12 2 12 9 0
8 -13 23 19 34 74 3 16 7 12 20 -17 18 -42 32 -52 17 -13 -11 29 -4 32 23 8
16 -14 19 -15 15 -3 -2 8 -14 20 -26 26 -44 22 -63 47 -60 78 3 31 8 33 42 20
14 -5 17 -4 12 4 -4 7 -2 12 4 12 7 0 10 -7 6 -15 -3 -9 4 -33 15 -55 21 -40
34 -54 22 -24 -5 15 -3 14 28 0 l34 -17 -25 20 c-46 37 -60 51 -60 61 0 21 31
9 72 -27 24 -20 37 -31 31 -23 -7 8 -13 18 -13 23 0 11 58 1 76 -13 9 -9 14
-9 14 -2 0 17 -35 32 -74 32 -20 0 -36 5 -36 11 0 7 15 10 41 7 32 -3 37 -1
25 8 -9 6 -13 14 -9 17 3 4 1 7 -5 7 -6 0 -14 -5 -17 -11 -9 -14 -102 -2 -132
17 -26 17 -30 42 -8 51 9 3 39 -4 67 -16 28 -11 62 -21 77 -21 15 0 31 -8 39
-20 7 -11 23 -20 36 -20 14 0 37 -7 53 -15 15 -9 41 -20 58 -26 l29 -10 -41
-19 c-22 -10 -102 -36 -178 -59 -138 -42 -178 -58 -227 -93 -28 -19 -28 -19
-70 6 -24 14 -85 41 -137 61 -154 58 -205 95 -132 95 15 0 36 9 46 20 10 11
29 20 42 20 13 0 31 9 40 20 10 11 33 23 53 26 19 4 41 12 49 18 11 9 64 24
124 35 4 0 7 -3 7 -8z"/>
<path d="M1698 1939 c-15 -23 -98 -83 -106 -75 -2 3 3 17 13 32 9 15 12 23 5
19 -13 -8 -52 -91 -55 -118 -1 -16 0 -15 20 3 15 14 35 20 71 20 27 0 56 5 64
10 9 6 -6 7 -45 3 l-60 -5 26 26 c20 21 37 28 73 30 25 1 52 8 58 14 9 9 3 9
-23 2 -44 -13 -52 -13 -43 1 3 6 25 20 48 30 22 10 35 19 28 19 -7 0 -26 -7
-42 -15 -31 -16 -40 -9 -18 13 7 7 9 12 5 12 -4 0 -12 -9 -19 -21z"/>
<path d="M1214 1831 c3 -4 24 -14 48 -22 l43 -14 -40 -6 -40 -6 50 -2 c30 -1
61 -9 79 -20 l29 -19 -36 -7 c-20 -4 -44 -5 -52 -1 -10 4 -14 2 -9 -5 4 -7 26
-9 58 -6 37 3 56 1 68 -10 13 -11 16 -12 14 -1 -5 26 -34 86 -46 93 -7 4 -4
-4 5 -19 22 -32 19 -32 -41 1 -27 15 -53 28 -59 30 -5 1 -25 6 -43 12 -18 5
-30 6 -28 2z"/>
<path d="M2136 1458 c-23 -72 -97 -187 -160 -247 -26 -26 -41 -48 -35 -51 18
-12 -121 -115 -226 -167 -75 -37 -147 -62 -250 -84 -88 -19 -73 -25 19 -8 47
8 70 7 124 -7 46 -11 88 -15 134 -11 115 10 103 22 -22 22 -82 0 -123 4 -132
13 -9 9 -8 12 6 12 10 0 62 21 115 46 64 31 112 48 144 50 57 3 141 30 157 50
9 10 -2 8 -34 -7 -25 -11 -70 -23 -99 -26 l-52 -6 50 40 c130 103 245 264 276
386 17 69 7 66 -15 -5z"/>
<path d="M1344 1367 c-4 -12 -18 -17 -44 -17 -38 0 -62 -14 -38 -22 6 -2 -3
-10 -20 -17 -18 -8 -32 -17 -32 -22 0 -5 8 -5 18 0 44 25 93 43 99 37 4 -3 -3
-20 -15 -36 -28 -38 -28 -45 1 -17 33 31 60 88 47 101 -6 6 -12 4 -16 -7z"/>
</g>
</svg>
