<?xml version="1.0" standalone="no"?>
<!DOCTYPE svg PUBLIC "-//W3C//DTD SVG 20010904//EN"
 "http://www.w3.org/TR/2001/REC-SVG-20010904/DTD/svg10.dtd">
<svg version="1.0" xmlns="http://www.w3.org/2000/svg"
 width="300.000000pt" height="300.000000pt" viewBox="0 0 300.000000 300.000000"
 preserveAspectRatio="xMidYMid meet">
<metadata>
Created by potrace 1.10, written by Peter Selinger 2001-2011
</metadata>
<g transform="translate(0.000000,300.000000) scale(0.100000,-0.100000)"
fill="#000000" stroke="none">
<path d="M1280 2480 c-312 -66 -593 -298 -715 -589 -155 -369 -84 -776 186
-1066 131 -140 302 -243 488 -293 85 -23 115 -25 261 -25 182 0 246 12 396 74
236 98 451 320 543 559 71 184 85 408 37 595 -42 164 -152 363 -255 459 -47
45 -37 11 14 -46 100 -112 180 -260 221 -413 15 -57 19 -103 18 -245 0 -161
-3 -182 -27 -263 -52 -169 -132 -300 -259 -423 -178 -174 -393 -267 -643 -280
-281 -15 -537 82 -742 279 -398 384 -396 1017 5 1399 91 87 163 136 277 189
148 69 215 83 415 83 163 0 181 -2 265 -28 119 -36 239 -95 321 -157 37 -28
70 -47 75 -42 9 9 -65 66 -162 125 -72 44 -198 91 -302 112 -105 22 -307 20
-417 -4z"/>
<path d="M1305 2450 c-207 -45 -369 -134 -511 -281 -123 -129 -201 -264 -246
-430 -19 -71 -23 -108 -23 -239 0 -131 4 -168 23 -239 138 -504 642 -813 1152
-706 358 75 648 350 741 702 30 111 36 292 15 406 -34 180 -116 350 -226 467
-28 30 -40 39 -25 20 15 -19 47 -62 72 -95 59 -78 127 -219 154 -320 30 -111
33 -346 5 -455 -73 -287 -268 -524 -531 -646 -405 -187 -894 -71 -1169 277
-241 305 -273 734 -78 1064 137 231 339 383 610 457 114 32 344 31 461 0 122
-33 214 -75 316 -144 49 -33 83 -53 76 -44 -26 32 -159 113 -235 145 -128 53
-217 72 -361 77 -103 3 -148 0 -220 -16z"/>
<path d="M1647 2243 c-16 -41 -37 -65 -37 -43 0 6 5 21 11 33 11 21 11 21 -11
-1 -17 -18 -19 -26 -10 -37 7 -8 17 -12 23 -8 6 4 8 -2 5 -15 -4 -12 -2 -22 3
-22 4 0 6 -7 3 -15 -7 -18 -28 -20 -21 -2 6 17 -22 69 -33 62 -6 -4 -10 -15
-10 -25 0 -10 -4 -21 -9 -24 -5 -3 -12 -22 -15 -41 -4 -19 -11 -35 -16 -35 -6
0 -10 -15 -10 -33 0 -18 -4 -37 -9 -42 -5 -6 -12 -35 -16 -66 -5 -42 -3 -58 7
-67 12 -10 13 -24 3 -89 -20 -129 -26 -193 -17 -193 5 0 14 49 21 110 13 123
17 140 36 140 7 0 16 7 19 16 11 28 16 10 7 -23 -5 -18 -5 -37 1 -47 7 -12 5
-32 -6 -63 -18 -53 -20 -67 -7 -59 5 3 14 28 21 56 9 37 17 50 30 50 9 0 29
18 44 40 14 22 24 40 21 40 -2 0 9 26 25 59 17 32 30 62 30 66 0 4 9 20 20 35
11 16 27 46 36 67 l15 38 -22 -25 c-12 -14 -26 -25 -33 -25 -6 0 -11 -9 -11
-19 0 -27 -22 -31 -30 -6 -4 12 -4 24 -1 27 3 4 6 -1 6 -10 0 -9 5 -17 11 -17
5 0 7 5 4 10 -8 13 14 42 26 34 5 -3 9 0 9 6 0 7 9 25 21 41 11 16 16 29 11
29 -5 0 -15 -11 -22 -25 -15 -29 -62 -63 -58 -43 2 7 11 19 21 26 9 7 17 19
17 25 0 7 -7 3 -15 -7 -8 -11 -15 -16 -15 -12 0 25 -41 -48 -110 -194 l-30
-65 6 49 c6 44 5 48 -9 35 -8 -8 -11 -17 -6 -20 5 -3 3 -14 -5 -25 -16 -21
-33 -14 -20 8 5 7 7 20 6 29 -2 11 8 21 29 28 18 6 30 14 26 17 -6 6 6 43 45
139 12 28 22 64 24 80 l3 30 -15 -28 c-8 -15 -12 -33 -8 -39 4 -7 3 -8 -4 -4
-17 10 -15 41 4 77 8 17 14 35 11 42 -2 6 -11 -8 -20 -30z m-65 -162 c-5 -3
-12 -15 -14 -26 -5 -19 -5 -19 -13 -1 -5 11 -3 21 4 25 7 4 11 12 10 17 -4 22
3 27 12 10 8 -12 8 -21 1 -25z m-22 -67 c0 -8 -5 -14 -10 -14 -6 0 -8 -11 -4
-25 8 -31 -12 -34 -22 -3 -4 13 -2 24 5 26 6 2 11 13 11 23 0 11 5 17 10 14 6
-3 10 -13 10 -21z m120 -30 c0 -8 -4 -14 -10 -14 -5 0 -10 -9 -10 -21 0 -16 4
-19 23 -14 21 7 21 6 5 -11 -17 -17 -18 -17 -34 1 -15 20 -15 20 -11 -2 3 -13
1 -26 -4 -29 -15 -9 -10 41 6 62 8 10 15 27 15 37 0 21 20 13 20 -9z m-50
-110 c0 -8 -4 -14 -10 -14 -5 0 -10 -9 -10 -21 0 -16 4 -19 23 -14 21 7 22 7
3 -11 -13 -14 -20 -16 -23 -6 -7 18 -21 15 -26 -5 -2 -10 -2 -2 0 17 3 19 9
37 14 38 5 2 9 13 9 23 0 11 5 17 10 14 6 -3 10 -13 10 -21z"/>
<path d="M2038 2181 c-59 -21 -116 -42 -125 -46 -15 -5 -10 -11 25 -29 l44
-22 -189 -205 c-103 -112 -224 -244 -268 -292 l-80 -88 -104 87 -104 87 -19
-23 c-30 -37 -358 -409 -412 -467 -27 -29 -46 -56 -43 -59 5 -6 113 87 365
313 57 51 108 93 114 93 5 0 52 -36 104 -80 51 -44 99 -80 106 -79 7 1 45 36
83 78 39 42 171 185 294 318 l225 242 21 -36 c12 -20 24 -32 27 -27 3 5 18 61
32 124 15 63 29 123 32 133 7 24 -5 22 -128 -22z m112 15 c0 -8 -52 -221 -55
-224 -1 -2 -11 11 -22 27 l-19 31 -279 -301 c-154 -166 -290 -313 -301 -327
l-21 -26 -103 87 c-57 48 -106 87 -109 87 -4 0 -87 -73 -186 -161 -230 -206
-231 -207 -159 -124 161 184 336 380 342 382 4 2 52 -35 107 -82 77 -65 103
-81 112 -72 6 7 131 142 277 302 l266 289 -36 19 c-20 10 -34 20 -32 22 6 6
192 73 206 74 6 1 12 -1 12 -3z"/>
<path d="M1421 2121 c-1 -42 -22 -101 -34 -101 -6 0 -7 20 -4 48 6 47 6 47 -9
19 -11 -20 -16 -65 -19 -149 -2 -66 -1 -117 3 -114 6 7 42 -23 42 -36 0 -4 -7
-8 -15 -8 -8 0 -15 7 -15 17 0 9 -2 14 -5 12 -9 -10 -36 -81 -28 -76 4 3 9
-17 10 -45 1 -48 1 -49 -18 -32 -11 9 -22 14 -26 11 -9 -10 38 -58 51 -54 19
7 46 -13 46 -33 0 -11 5 -20 10 -20 6 0 10 5 10 11 0 7 7 17 16 23 20 15 35
83 24 112 -6 15 -5 24 2 26 8 3 7 10 -1 26 -6 12 -8 22 -4 22 4 0 8 46 7 103
-1 141 -2 155 -13 138 -9 -14 -12 -2 -24 104 -4 29 -4 29 -6 -4z m9 -101 c0
-22 -17 -35 -23 -18 -6 19 4 49 14 42 5 -3 9 -14 9 -24z m20 -79 c0 -12 -31
-43 -37 -37 -7 7 16 46 27 46 6 0 10 -4 10 -9z m-3 -73 c0 -33 -12 -58 -28
-58 -14 0 -11 17 7 34 14 15 14 16 0 16 -19 0 -21 11 -4 28 19 19 25 14 25
-20z m-7 -93 c-7 -8 -16 -15 -21 -15 -14 0 -10 17 8 36 20 20 32 1 13 -21z
m-40 -42 c0 -11 -4 -11 -20 -3 -11 6 -20 20 -20 32 0 20 1 21 20 3 11 -10 20
-24 20 -32z m50 11 c0 -13 -21 -44 -30 -44 -14 0 -12 24 2 38 13 13 28 16 28
6z m-56 -47 c6 -9 7 -19 3 -23 -9 -9 -37 15 -37 33 0 18 20 12 34 -10z m60
-13 c3 -8 2 -13 -3 -10 -5 3 -11 -1 -15 -9 -7 -18 -26 -20 -26 -2 0 14 19 37
31 37 4 0 10 -7 13 -16z m-54 -61 c0 -10 -5 -11 -19 -4 -10 6 -22 7 -26 3 -5
-4 -5 1 -2 11 4 10 7 23 7 29 0 6 9 3 20 -7 11 -10 20 -24 20 -32z m40 -8
c-16 -19 -30 -19 -30 0 0 17 33 38 38 24 2 -5 -2 -16 -8 -24z"/>
<path d="M1059 2093 c-9 -10 -14 -45 -15 -92 -1 -42 0 -59 3 -38 2 20 10 37
16 37 7 0 6 4 -3 10 -10 6 -11 10 -2 10 6 0 13 10 13 23 1 16 2 18 6 5 2 -10
10 -18 18 -18 24 0 36 -65 13 -73 -7 -2 -6 -3 4 -2 26 4 30 -33 4 -38 -16 -3
-14 -5 8 -6 26 -1 28 1 22 27 -3 15 -8 38 -11 52 -4 22 -2 22 10 -5 8 -16 14
-23 15 -14 0 24 -50 118 -70 129 -13 7 -22 5 -31 -7z"/>
<path d="M1180 2060 c-6 -11 -12 -46 -14 -78 -2 -31 -1 -51 2 -43 3 9 9 4 17
-15 11 -26 12 -18 11 63 0 51 -2 93 -3 93 -1 0 -7 -9 -13 -20z"/>
<path d="M1085 2011 c3 -6 0 -13 -7 -18 -15 -9 -20 -53 -7 -53 5 0 9 11 9 25
0 15 6 25 15 25 9 0 12 6 9 15 -4 8 -10 15 -16 15 -5 0 -7 -4 -3 -9z"/>
<path d="M917 1965 c-23 -49 -21 -53 11 -22 27 26 29 27 44 10 9 -10 26 -38
39 -63 l24 -45 3 32 c3 28 9 34 43 44 21 7 37 14 35 17 -3 2 -20 -1 -40 -8
-34 -11 -36 -10 -72 29 -45 50 -65 52 -87 6z"/>
<path d="M1241 1943 c-15 -6 -61 -100 -61 -126 0 -10 -3 -16 -7 -14 -5 3 -8
-9 -8 -26 -1 -18 -2 -59 -3 -92 l-3 -60 -29 68 c-36 85 -73 135 -106 143 -36
9 -50 -8 -31 -37 22 -33 56 -141 60 -186 2 -21 9 -49 16 -61 12 -22 12 -22 48
20 95 114 120 137 133 125 10 -10 12 -8 6 8 -4 11 -10 58 -12 105 l-6 85 21
-25 c11 -14 30 -43 41 -65 l21 -40 -5 61 c-6 95 -32 135 -75 117z m-131 -290
c0 -12 -5 -25 -10 -28 -12 -8 -30 36 -30 73 l0 27 20 -25 c11 -14 20 -35 20
-47z"/>
<path d="M1067 1863 c-11 -3 -16 -10 -13 -20 3 -8 6 -16 6 -18 0 -2 9 -1 19 2
17 4 28 45 11 42 -3 -1 -13 -3 -23 -6z"/>
<path d="M933 1848 c-5 -7 -17 -33 -27 -56 -22 -57 -6 -52 52 16 l45 52 -30 0
c-17 0 -35 -6 -40 -12z"/>
<path d="M1154 1845 c4 -10 -1 -15 -14 -15 -13 0 -20 -7 -20 -20 0 -11 6 -20
13 -20 8 0 7 -4 -3 -10 -12 -8 -11 -10 7 -10 17 0 21 4 16 18 -4 9 -11 20 -17
24 -6 4 -1 8 13 8 16 0 21 4 18 14 -3 8 -1 17 6 20 7 2 4 5 -7 5 -12 1 -16 -4
-12 -14z"/>
<path d="M1935 1766 c-21 -55 -17 -101 9 -101 13 0 22 10 28 30 9 33 0 115
-12 115 -5 0 -16 -20 -25 -44z"/>
<path d="M2014 1768 c-12 -12 -24 -36 -26 -53 -3 -16 -9 -38 -13 -47 -5 -14
-2 -18 12 -18 26 0 56 65 51 109 l-3 33 -21 -24z"/>
<path d="M1856 1758 c-17 -24 -21 -42 -7 -34 4 3 14 -12 21 -34 15 -45 40 -44
40 2 0 26 -24 88 -35 88 -2 0 -11 -10 -19 -22z"/>
<path d="M715 1754 c37 -16 20 -18 -24 -3 -18 6 -35 9 -38 6 -3 -3 20 -13 51
-22 31 -9 56 -21 56 -27 0 -6 -10 -8 -22 -4 -54 14 -71 15 -38 3 25 -10 31
-16 20 -20 -8 -4 -4 -5 10 -1 31 7 35 7 85 -3 26 -6 35 -11 27 -16 -6 -5 -28
-3 -47 4 -29 11 -37 11 -47 0 -11 -11 -9 -13 10 -8 12 3 20 1 16 -4 -3 -5 4
-9 15 -9 12 0 21 -4 21 -10 0 -5 9 -10 19 -10 11 0 21 -5 23 -11 4 -11 44 -15
82 -8 10 2 21 -2 24 -10 4 -11 -2 -12 -24 -7 -27 7 -28 6 -12 -10 14 -14 20
-15 32 -5 18 15 51 7 41 -9 -4 -6 -16 -8 -27 -4 -14 4 -18 3 -13 -6 4 -6 17
-9 30 -6 26 7 55 -1 55 -15 0 -15 -61 -4 -113 20 -45 21 -50 21 -72 7 -25 -16
-61 -74 -52 -83 3 -2 17 12 32 31 15 20 36 36 47 36 11 0 43 -24 72 -53 l53
-53 33 38 c33 40 31 56 -7 81 -7 4 -13 17 -13 29 0 17 3 19 18 8 9 -7 -10 13
-43 44 -32 30 -61 53 -63 51 -3 -2 -19 7 -37 21 -18 14 -42 27 -53 29 -12 2
-29 8 -39 14 -12 6 -25 6 -34 0 -18 -11 -32 -12 -25 -1 3 5 -9 9 -27 9 l-32 0
30 -13z m101 -38 c5 -30 -15 -36 -36 -11 -10 13 -9 15 11 16 13 0 18 3 11 6
-6 2 -9 9 -6 15 8 13 14 5 20 -26z m49 -16 c18 -20 15 -38 -4 -25 -15 9 -33
45 -23 45 5 0 17 -9 27 -20z m145 -97 c0 -23 -25 -9 -28 17 -3 18 -6 20 -13 9
-8 -12 -12 -11 -24 5 -30 39 -16 48 25 16 22 -17 40 -38 40 -47z m38 -100 c-8
-10 -14 -11 -16 -4 -2 6 -7 9 -12 6 -4 -3 -13 1 -18 8 -9 10 -4 12 24 9 29 -4
33 -6 22 -19z"/>
<path d="M950 1729 c0 -11 4 -18 9 -14 6 3 26 -16 46 -42 34 -44 36 -46 30
-18 -7 29 -60 95 -77 95 -4 0 -8 -9 -8 -21z"/>
<path d="M2052 1721 c2 -21 -5 -38 -22 -56 -18 -19 -21 -28 -12 -37 12 -12 64
-19 56 -7 -2 3 6 15 17 25 12 10 28 32 36 47 14 28 14 29 -6 23 -12 -3 -29 -8
-40 -11 -15 -5 -17 -1 -13 20 2 15 0 25 -8 25 -7 0 -10 -12 -8 -29z"/>
<path d="M1727 1626 l-77 -85 0 -210 0 -211 80 0 80 0 0 295 c0 162 -1 295 -3
295 -1 0 -37 -38 -80 -84z m73 -216 l0 -270 -70 0 -70 0 0 196 0 196 66 74
c37 41 68 74 70 74 2 0 4 -121 4 -270z"/>
<path d="M1840 1668 c0 -49 14 -64 25 -28 3 10 -1 32 -9 47 l-15 28 -1 -47z"/>
<path d="M2110 1645 l-23 -25 23 0 c21 0 49 24 50 43 0 16 -28 6 -50 -18z"/>
<path d="M1870 1622 c-28 -28 -28 -30 -28 -146 0 -87 3 -115 11 -107 6 6 15
11 21 11 6 0 5 -5 -2 -12 -14 -14 -16 -68 -4 -68 5 0 7 -13 4 -30 -5 -33 -22
-41 -22 -10 0 11 -4 20 -9 20 -6 0 -6 -14 0 -34 6 -21 6 -50 0 -75 -10 -45 0
-55 17 -17 13 29 93 69 146 72 23 2 55 5 71 7 17 2 22 2 13 0 -28 -7 -21 -19
20 -31 20 -7 48 -21 62 -32 19 -15 8 -12 -42 10 -37 16 -70 30 -73 30 -3 0 2
-11 11 -25 9 -14 14 -28 11 -31 -3 -3 -13 8 -21 25 -18 35 -54 48 -85 31 -28
-15 -26 -41 5 -71 27 -25 21 -24 172 -17 20 1 55 -2 76 -6 l40 -9 -60 67 c-70
79 -126 110 -179 100 -19 -3 -40 -15 -46 -25 -5 -11 -15 -19 -22 -19 -7 0 -30
-9 -51 -19 -33 -18 -37 -18 -30 -3 4 9 9 55 10 102 1 47 5 97 9 111 6 24 10
26 48 23 57 -4 75 2 92 36 56 108 -81 225 -165 142z m123 -4 c51 -53 56 -98
15 -139 -31 -31 -75 -34 -108 -9 -16 12 -20 20 -11 20 11 0 9 4 -5 14 -10 8
-16 18 -12 22 4 4 3 14 -4 21 -7 9 -8 17 -2 21 5 4 10 16 12 27 2 11 11 26 20
33 20 16 76 10 95 -10z m-118 -129 c-3 -3 2 -12 10 -19 13 -11 13 -14 -2 -26
-24 -18 -38 -18 -24 0 9 10 9 20 2 34 -7 14 -7 19 4 19 8 0 12 -4 10 -8z"/>
<path d="M1914 1613 c3 -6 2 -14 -3 -17 -6 -4 -6 -18 -1 -38 5 -17 7 -34 5
-38 -8 -13 21 -31 39 -24 9 3 16 1 16 -6 0 -6 5 -8 11 -4 7 4 7 9 2 13 -5 3
-9 19 -9 36 1 25 -4 31 -33 41 -21 7 -29 13 -20 16 12 5 12 7 0 19 -8 8 -11 9
-7 2z"/>
<path d="M1950 1605 c0 -8 52 -56 57 -52 5 5 -41 57 -51 57 -3 0 -6 -2 -6 -5z"/>
<path d="M2080 1599 c-31 -13 -32 -13 -24 -33 9 -24 71 -21 111 7 18 12 33 25
33 30 0 10 -90 8 -120 -4z"/>
<path d="M2060 1516 c0 -12 -4 -27 -9 -35 -5 -8 -7 -20 -4 -28 10 -25 133 -76
133 -55 0 16 -55 61 -83 67 -49 13 -37 21 22 17 33 -2 67 0 76 6 17 9 16 11
-6 23 -13 7 -48 16 -76 19 -49 6 -53 4 -53 -14z"/>
<path d="M1537 1422 l-77 -77 0 -113 0 -112 80 0 80 0 0 190 c0 105 -1 190 -3
190 -1 0 -37 -35 -80 -78z m73 -112 l0 -170 -70 0 -70 0 0 96 0 96 68 74 c37
40 68 73 70 74 1 0 2 -76 2 -170z"/>
<path d="M1157 1436 l-58 -54 3 -128 3 -129 63 -3 62 -3 0 186 c0 102 -3 185
-7 185 -5 -1 -34 -25 -66 -54z m63 -131 l0 -165 -50 0 -50 0 0 123 0 122 47
42 c27 23 49 42 51 43 1 0 2 -74 2 -165z"/>
<path d="M1270 1301 l0 -181 80 0 81 0 -3 116 -3 116 -77 65 -78 65 0 -181z
m80 98 l59 -51 3 -104 3 -104 -67 0 -68 0 0 155 c0 85 3 155 6 155 3 0 32 -23
64 -51z"/>
<path d="M2145 1461 c-3 -5 4 -13 16 -16 23 -8 34 -1 24 14 -8 13 -32 14 -40
2z"/>
<path d="M2016 1441 c-11 -17 28 -70 67 -92 21 -11 41 -18 44 -15 9 9 -18 66
-32 66 -7 0 -23 11 -36 25 -26 27 -35 30 -43 16z"/>
<path d="M1906 1414 c-15 -39 0 -153 17 -134 14 15 37 72 37 90 0 48 -40 80
-54 44z"/>
<path d="M1970 1388 c0 -51 36 -120 51 -97 14 22 11 68 -7 105 -23 48 -44 44
-44 -8z"/>
<path d="M2040 1347 c0 -8 9 -22 20 -32 19 -18 20 -17 20 3 0 12 -9 26 -20 32
-16 8 -20 8 -20 -3z"/>
<path d="M1007 1303 l-57 -48 0 -67 0 -68 60 0 60 0 0 115 c0 63 -1 115 -3
115 -1 0 -28 -21 -60 -47z m53 -68 l0 -95 -50 0 -50 0 0 53 c0 50 2 54 47 94
27 23 49 42 51 43 1 0 2 -43 2 -95z"/>
<path d="M862 1172 c-23 -20 -42 -40 -42 -44 0 -5 20 -8 44 -8 25 0 46 3 48 8
2 4 1 24 -2 44 l-5 37 -43 -37z m38 -7 c0 -20 -5 -25 -27 -25 l-26 0 23 25
c13 14 25 25 27 25 2 0 3 -11 3 -25z"/>
</g>
</svg>
