<?xml version="1.0" standalone="no"?>
<!DOCTYPE svg PUBLIC "-//W3C//DTD SVG 20010904//EN"
 "http://www.w3.org/TR/2001/REC-SVG-20010904/DTD/svg10.dtd">
<svg version="1.0" xmlns="http://www.w3.org/2000/svg"
 width="300.000000pt" height="300.000000pt" viewBox="0 0 300.000000 300.000000"
 preserveAspectRatio="xMidYMid meet">
<metadata>
Created by potrace 1.10, written by Peter Selinger 2001-2011
</metadata>
<g transform="translate(0.000000,300.000000) scale(0.100000,-0.100000)"
fill="#000000" stroke="none">
<path d="M1241 2194 c-185 -50 -349 -216 -390 -394 -16 -69 -13 -209 5 -271
70 -237 283 -399 524 -399 96 0 211 34 292 87 27 17 28 17 58 -12 22 -21 30
-38 30 -62 0 -30 19 -56 141 -196 172 -196 173 -197 216 -197 50 0 85 38 81
89 -3 35 -21 61 -156 215 -120 138 -159 176 -178 176 -23 0 -83 53 -84 74 0 4
12 22 26 39 63 74 114 221 114 327 0 248 -188 479 -428 529 -72 15 -186 13
-251 -5z m289 -34 c36 -11 93 -37 125 -58 257 -166 312 -505 122 -754 l-35
-45 38 -44 c36 -41 37 -45 22 -62 -16 -17 -18 -16 -57 28 l-41 47 -48 -32
c-79 -54 -167 -80 -272 -80 -149 0 -250 40 -359 141 -261 245 -196 669 126
828 128 63 237 72 379 31z m482 -1113 c182 -207 171 -192 164 -222 -8 -31 -49
-59 -74 -51 -17 6 -312 334 -320 356 -3 9 67 79 80 80 4 0 71 -73 150 -163z"/>
<path d="M1281 2134 c-185 -40 -326 -179 -367 -362 -49 -220 61 -434 276 -536
55 -26 80 -31 161 -34 156 -7 265 35 363 138 118 124 163 292 121 455 -46 175
-204 316 -385 345 -80 12 -89 12 -169 -6z m204 -28 c260 -69 403 -340 312
-592 -70 -193 -283 -319 -483 -286 -318 53 -483 398 -321 674 31 53 106 125
167 161 91 53 223 71 325 43z"/>
<path d="M1367 1968 c-27 -37 -47 -89 -47 -124 0 -38 18 -28 26 14 8 44 27 83
48 101 18 15 22 41 7 41 -6 0 -21 -15 -34 -32z"/>
<path d="M1120 1905 c0 -8 7 -15 15 -15 25 0 77 -29 111 -62 43 -40 53 -19 12
23 -31 31 -99 68 -125 69 -7 0 -13 -7 -13 -15z"/>
<path d="M1437 1812 c-10 -10 -17 -32 -17 -48 l-1 -29 -33 38 c-50 56 -118 45
-122 -19 -4 -71 -1 -68 -35 -39 -18 14 -39 25 -48 23 -21 -4 -17 -22 6 -28 51
-14 101 -90 59 -90 -8 0 -20 -16 -26 -36 -7 -19 -18 -38 -26 -41 -8 -3 -14
-11 -14 -19 0 -34 47 -1 58 40 5 16 13 31 19 33 13 5 27 -63 16 -80 -4 -6 -8
-34 -8 -62 0 -27 -3 -54 -5 -60 -3 -5 0 -12 5 -14 20 -8 37 46 26 84 -6 21 -6
37 0 41 5 3 9 1 9 -5 0 -6 14 -26 31 -46 28 -32 30 -39 20 -61 -6 -14 -11 -31
-11 -39 0 -25 19 -17 26 10 6 23 10 24 44 19 31 -5 40 -3 53 17 15 21 19 21
42 9 14 -7 28 -10 32 -6 7 7 -12 26 -45 45 -9 5 -12 26 -10 67 l3 59 25 -44
c27 -47 54 -70 67 -57 4 4 -2 15 -14 24 -12 9 -28 34 -37 55 -8 20 -22 37 -31
37 -16 0 -38 44 -33 68 2 11 9 9 30 -7 27 -22 78 -29 78 -11 0 6 -8 10 -19 10
-10 0 -30 9 -45 21 -15 12 -35 19 -46 16 -10 -3 -21 1 -24 9 -8 21 5 83 20 95
15 13 19 39 6 39 -5 0 -16 -8 -25 -18z m-87 -31 c0 -5 -13 -11 -30 -13 -30 -5
-41 6 -17 15 20 9 47 8 47 -2z m24 -37 c27 -10 18 -34 -19 -50 -46 -19 -75
-18 -75 3 0 39 50 64 94 47z m56 -91 c12 -27 24 -68 27 -93 l6 -45 -46 46
c-58 59 -69 95 -36 120 13 10 25 19 26 19 1 0 12 -21 23 -47z m-89 -27 c5 -16
31 -53 60 -82 43 -43 51 -57 45 -77 -22 -90 -141 26 -160 156 -5 37 -4 38 21
35 20 -2 29 -11 34 -32z"/>
</g>
</svg>
