<?xml version="1.0" standalone="no"?>
<!DOCTYPE svg PUBLIC "-//W3C//DTD SVG 20010904//EN"
 "http://www.w3.org/TR/2001/REC-SVG-20010904/DTD/svg10.dtd">
<svg version="1.0" xmlns="http://www.w3.org/2000/svg"
width="300.000000pt" height="300.000000pt" viewBox="0 0 171.000000 140.000000"
 preserveAspectRatio="xMidYMid meet">
<metadata>
Created by potrace 1.10, written by Peter Selinger 2001-2011
</metadata>
<g transform="translate(0.000000,140.000000) scale(0.100000,-0.100000)"
fill="#000000" stroke="none">
<path d="M1148 1120 c-2 -42 1 -65 10 -72 22 -19 33 6 30 68 -2 45 -7 60 -20
62 -13 3 -17 -8 -20 -58z"/>
<path d="M933 1084 c-6 -17 62 -94 83 -94 30 0 23 25 -17 66 -47 48 -57 52
-66 28z"/>
<path d="M1340 1055 c-39 -40 -43 -47 -29 -60 13 -13 20 -10 58 29 29 29 42
50 38 60 -9 24 -19 20 -67 -29z"/>
<path d="M1112 1009 c-19 -5 -53 -30 -77 -54 -25 -24 -47 -40 -50 -34 -13 21
-88 50 -143 55 -124 13 -246 -54 -299 -165 -24 -51 -31 -59 -51 -54 -35 8
-106 -15 -145 -48 -99 -82 -102 -242 -6 -323 66 -56 67 -56 477 -56 l378 0 50
25 c66 34 106 91 112 162 5 60 -16 129 -48 158 -19 17 -19 18 8 52 35 47 42
141 14 193 -40 73 -140 114 -220 89z m95 -39 c16 0 39 -14 64 -39 35 -35 39
-43 39 -91 0 -36 -7 -63 -21 -86 -11 -19 -22 -34 -24 -34 -1 0 -22 9 -46 20
-24 11 -61 20 -81 20 -29 0 -38 5 -44 23 -3 12 -20 42 -36 66 l-29 44 33 34
c32 33 81 55 106 47 8 -2 25 -4 39 -4z m-280 -58 c52 -27 110 -93 133 -152
l18 -45 45 3 c60 5 126 -25 163 -74 25 -32 29 -46 29 -103 0 -80 -23 -118 -88
-150 -41 -20 -59 -21 -409 -21 -406 0 -410 1 -466 65 -38 43 -47 72 -38 132
12 92 98 161 185 149 l46 -6 19 51 c22 65 95 140 157 162 58 22 151 16 206
-11z"/>
<path d="M1380 840 c0 -19 5 -21 68 -18 52 2 67 6 67 18 0 12 -15 16 -67 18
-63 3 -68 1 -68 -18z"/>
<path d="M1345 680 c-8 -13 7 -39 39 -69 21 -20 28 -22 41 -11 14 12 12 18
-22 52 -39 40 -48 44 -58 28z"/>
</g>
</svg>
